<?xml version="1.0" encoding="UTF-8"?>
<svg fill="#919191" width="100pt" height="100pt" version="1.1" viewBox="0 0 100 100" xmlns="http://www.w3.org/2000/svg">
 <path d="m90.969 36.371c-2.4883-4.8867-6.5625-7.8086-9.1055-6.5156-2.2969 1.1641-2.5273 5.375-0.72266 9.7773l-15.254 8.4492c-1.5391-2.0586-3.5312-3.7539-5.8438-4.9297l2.5312-8.4414 4.0352-0.82031c0.72656 1.8633 2.1133 3.0547 3.3438 2.7461 1.1797-0.29688 1.8242-1.8828 1.6602-3.7695l0.0625-0.011719-0.3125-1.5195-0.058593 0.011718c-0.66406-2.1211-2.1641-3.5391-3.4922-3.207-1.2773 0.32031-1.9297 2.1562-1.6016 4.2461l-3.1367 0.64062 4.082-13.605c4.1367 0.85156 7.832-0.21484 8.5586-2.6484 0.80078-2.6797-2.3008-5.9727-6.9297-7.3516-4.625-1.3828-9.0234-0.33203-9.8242 2.3477-0.69922 2.3359 1.5742 5.1406 5.2344 6.7344l-7.0508 23.5c-1.4961-0.4375-3.0703-0.68359-4.707-0.68359-1.832 0-3.5898 0.30078-5.2383 0.84375l-4.0352-12.785c2.1094-1.0469 3.3867-2.793 2.957-4.3477-0.52344-1.9062-3.3906-2.7812-6.3984-1.9531-3.0078 0.82812-5.0195 3.0469-4.4961 4.9531 0.44141 1.5977 2.5273 2.4531 4.9609 2.207l4.1523 13.164c-3.0742 1.6953-5.5469 4.332-7.0586 7.5156l-7.2617-3.7148-0.49609-10.586c2.4492-0.29688 4.293-1.5859 4.293-3.1328 0-1.7656-2.3984-3.1953-5.3594-3.1953-2.957 0-5.3555 1.4297-5.3555 3.1953 0 1.6641 2.1445 3.0195 4.8711 3.1641l0.45703 9.7383-10.402-5.3203c1.7852-4.8867 1.2305-9.5312-1.4141-10.688-2.8477-1.2461-7.0312 2.0273-9.3477 7.3125s-1.8867 10.582 0.96094 11.832c2.4766 1.0859 5.9688-1.2578 8.3594-5.3711l19.543 10c-0.30859 1.2695-0.48828 2.5898-0.48828 3.957 0 2.3086 0.46875 4.5078 1.3086 6.5078l-0.58203-1.2773-15.145 6.9219c-1.543-2.0234-3.668-3.0273-5.3398-2.3008-2.1562 0.9375-2.7344 4.3828-1.293 7.6914 1.4414 3.3047 4.3594 5.2266 6.5156 4.2852 1.9922-0.86719 2.6133-3.875 1.5625-6.9375l8.7891-4.0156v5.7969c-2.1602 0.41016-3.793 2.3047-3.793 4.582 0 2.582 2.0898 4.6719 4.6719 4.6719 2.582 0 4.6719-2.0898 4.6719-4.6719 0-2.2812-1.6328-4.1719-3.793-4.582v-6.6016l4.4375-2.0273-0.64062-1.4023c2.043 4.7344 6.2031 8.3242 11.289 9.6172v10.352c-2.1172 0.33594-3.6641 1.3203-3.6641 2.5 0 1.4492 2.3359 2.6289 5.2109 2.6289 2.8789 0 5.2109-1.1797 5.2109-2.6289 0-1.1797-1.5469-2.1641-3.6641-2.5v-9.8711c0.36719 0.019532 0.70703 0.050782 1.0547 0.050782 2.6055 0 5.0625-0.60938 7.2656-1.6719l0.89453 1.9375c-1.2617 0.85547-2.0898 2.3008-2.0898 3.9414 0 2.6328 2.1367 4.7656 4.7656 4.7656 2.6328 0 4.7656-2.1328 4.7656-4.7656 0-2.6328-2.1328-4.7656-4.7656-4.7656-0.4375 0-0.85547 0.078125-1.2617 0.19141l-0.94141-2.0391c2.5234-1.5195 4.6211-3.6719 6.0547-6.2539l10.02 7.2305c-1.1055 2.4609-1.1172 4.7773 0.14453 5.5977 1.543 1.0039 4.3711-0.62109 6.3242-3.6211 1.9492-3 2.2852-6.2461 0.74219-7.25-1.2656-0.82031-3.3906 0.14063-5.1914 2.1602l-6.2305-4.4961 3.375-2.6836c0.74609 0.58984 1.6797 0.96094 2.707 0.96094 2.4219 0 4.3789-1.9609 4.3789-4.3789 0-2.418-1.9609-4.3789-4.3789-4.3789-2.418 0-4.3789 1.9609-4.3789 4.3789 0 0.82813 0.24219 1.5977 0.64453 2.2578l-3.6523 2.9062-3.0586-2.207c0.41797-1.4648 0.65234-3.0039 0.65234-4.6016 0-2.6523-0.63281-5.1523-1.7305-7.3828l15.027-8.3281c2.5 4.0586 6.0469 6.3359 8.3398 5.168 2.543-1.293 2.582-6.3086 0.097656-11.199z"/>
</svg>
