<?xml version="1.0" encoding="utf-8"?>
<svg x="186.071pt" y="19.5175pt" width="431.13pt" height="59.6979pt" viewBox="186.071 19.5175 431.13 59.6979" xmlns="http://www.w3.org/2000/svg" xmlns:xlink="http://www.w3.org/1999/xlink">
  <clipPath id="2">
    <use xlink:href="#1"/>
    <path id="1" d="M186.071,21.2332 C186.071,21.2332,235.906,21.2332,235.906,21.2332 C235.906,21.2332,235.906,71.0689,235.906,71.0689 C235.906,71.0689,186.071,71.0689,186.071,71.0689 C186.071,71.0689,186.071,21.2332,186.071,21.2332 z"/>
  </clipPath>
  <g id="3" style="clip-path:url(#2);">
    <title>Clipping Group</title>
    <defs>
      <title>Path 1</title>
      <g id="4">
        <defs>
          <path id="5" d="M231.406,39.3589 C230.166,36.9236,228.135,35.4675,226.868,36.1118 C225.723,36.692,225.608,38.7905,226.508,40.9844 C223.974,42.388,221.44,43.7916,218.906,45.1952 C218.139,44.1692,217.146,43.3244,215.994,42.7384 C216.414,41.3361,216.835,39.9338,217.255,38.5316 C217.925,38.3953,218.596,38.259,219.266,38.1228 C219.628,39.0513,220.319,39.6451,220.932,39.4913 C221.52,39.3433,221.842,38.553,221.76,37.6127 C221.77,37.6108,221.781,37.6088,221.791,37.6069 C221.739,37.3545,221.687,37.1021,221.635,36.8496 C221.625,36.8516,221.616,36.8535,221.606,36.8555 C221.275,35.7984,220.528,35.0917,219.866,35.2572 C219.229,35.4169,218.904,36.3318,219.067,37.3733 C218.546,37.4797,218.025,37.5862,217.504,37.6926 C218.182,35.4325,218.86,33.1725,219.539,30.9124 C221.6,31.3368,223.442,30.8054,223.804,29.5926 C224.203,28.2571,222.657,26.616,220.35,25.9288 C218.045,25.2397,215.853,25.7634,215.454,27.0988 C215.106,28.263,216.239,29.6607,218.063,30.455 C216.892,34.3588,215.72,38.2626,214.549,42.1664 C213.804,41.9484,213.019,41.8257,212.203,41.8257 C211.29,41.8257,210.414,41.9756,209.593,42.2462 C208.923,40.1224,208.252,37.9985,207.582,35.8747 C208.633,35.353,209.27,34.4828,209.056,33.708 C208.795,32.758,207.366,32.322,205.867,32.7346 C204.368,33.1474,203.365,34.2531,203.626,35.2031 C203.846,35.9993,204.886,36.4256,206.098,36.3029 C206.788,38.4897,207.478,40.6765,208.168,42.8633 C206.636,43.7082,205.403,45.0222,204.65,46.6088 C203.444,45.9917,202.237,45.3746,201.031,44.7575 C200.949,42.9989,200.866,41.2404,200.784,39.4819 C202.005,39.3339,202.923,38.6915,202.923,37.9206 C202.923,37.0407,201.728,36.3282,200.252,36.3282 C198.779,36.3282,197.584,37.0407,197.584,37.9206 C197.584,38.7499,198.652,39.4254,200.011,39.4975 C200.087,41.1152,200.163,42.7329,200.239,44.3506 C198.511,43.4668,196.783,42.583,195.055,41.6992 C195.945,39.2639,195.668,36.9493,194.35,36.3728 C192.931,35.7518,190.846,37.3831,189.692,40.017 C188.537,42.6509,188.751,45.2906,190.171,45.9136 C191.405,46.4547,193.145,45.2867,194.337,43.2368 C197.583,44.898,200.829,46.5592,204.076,48.2204 C203.922,48.8531,203.833,49.5111,203.833,50.1924 C203.833,51.3429,204.066,52.4389,204.485,53.4356 C204.388,53.2234,204.291,53.0113,204.195,52.7991 C201.679,53.9489,199.163,55.0988,196.647,56.2487 C195.878,55.2403,194.819,54.74,193.986,55.102 C192.911,55.5693,192.623,57.2862,193.342,58.9351 C194.06,60.582,195.514,61.5398,196.589,61.0707 C197.582,60.6385,197.891,59.1395,197.367,57.6133 C198.827,56.9463,200.287,56.2792,201.747,55.6121 C201.747,56.5751,201.747,57.5381,201.747,58.501 C200.671,58.7054,199.857,59.6496,199.857,60.7845 C199.857,62.0713,200.899,63.1128,202.185,63.1128 C203.472,63.1128,204.514,62.0713,204.514,60.7845 C204.514,59.6477,203.7,58.7054,202.623,58.501 C202.623,57.4044,202.623,56.3077,202.623,55.2111 C203.361,54.8743,204.098,54.5375,204.835,54.2008 C204.729,53.9678,204.622,53.7349,204.516,53.5019 C205.534,55.8613,207.607,57.6503,210.142,58.2947 C210.142,60.0144,210.142,61.7341,210.142,63.4537 C209.087,63.6211,208.316,64.1117,208.316,64.6996 C208.316,65.4218,209.48,66.0097,210.913,66.0097 C212.347,66.0097,213.509,65.4218,213.509,64.6996 C213.509,64.1117,212.738,63.6211,211.683,63.4537 C211.683,61.8139,211.683,60.1742,211.683,58.5344 C211.866,58.5441,212.036,58.5597,212.209,58.5597 C213.507,58.5597,214.732,58.256,215.83,57.7265 C215.978,58.0483,216.127,58.3702,216.276,58.6921 C215.647,59.1184,215.234,59.8387,215.234,60.6563 C215.234,61.9684,216.299,63.0313,217.609,63.0313 C218.921,63.0313,219.984,61.9684,219.984,60.6563 C219.984,59.3442,218.921,58.2813,217.609,58.2813 C217.391,58.2813,217.183,58.3202,216.98,58.3767 C216.824,58.038,216.668,57.6992,216.511,57.3605 C217.769,56.6032,218.814,55.5306,219.529,54.2438 C221.193,55.4449,222.858,56.6461,224.522,57.8472 C223.971,59.0736,223.965,60.228,224.594,60.6368 C225.363,61.1371,226.773,60.3273,227.746,58.8322 C228.717,57.3372,228.885,55.7194,228.116,55.2192 C227.485,54.8103,226.426,55.2892,225.529,56.2957 C224.494,55.5488,223.459,54.8019,222.424,54.055 C222.984,53.6092,223.545,53.1634,224.106,52.7176 C224.477,53.0116,224.943,53.1965,225.455,53.1965 C226.662,53.1965,227.637,52.2193,227.637,51.0143 C227.637,49.8092,226.66,48.832,225.455,48.832 C224.25,48.832,223.272,49.8092,223.272,51.0143 C223.272,51.427,223.393,51.8105,223.594,52.1395 C222.987,52.6222,222.38,53.105,221.773,53.5878 C221.265,53.2212,220.757,52.8545,220.249,52.4879 C220.457,51.7579,220.574,50.9909,220.574,50.1947 C220.574,48.8729,220.259,47.627,219.712,46.5154 C222.208,45.1319,224.704,43.7485,227.201,42.365 C228.447,44.3877,230.214,45.5226,231.357,44.9405 C232.624,44.2962,232.644,41.7966,231.406,39.3594 z"/>
        </defs>
        <use xlink:href="#5" style="fill:#000000;fill-opacity:1;fill-rule:evenodd;opacity:1;stroke:none;"/>
      </g>
    </defs>
    <use xlink:href="#4"/>
  </g>
  <clipPath id="7">
    <use xlink:href="#6"/>
    <path id="6" d="M186.071,21.2332 C186.071,21.2332,235.906,21.2332,235.906,21.2332 C235.906,21.2332,235.906,71.0689,235.906,71.0689 C235.906,71.0689,186.071,71.0689,186.071,71.0689 C186.071,71.0689,186.071,21.2332,186.071,21.2332 z"/>
  </clipPath>
  <g id="8" style="clip-path:url(#7);">
    <defs>
      <g id="9">
        <defs>
          <path id="10" d="M231.406,39.3589 C230.166,36.9236,228.135,35.4675,226.868,36.1118 C225.723,36.692,225.608,38.7905,226.508,40.9844 C223.974,42.388,221.44,43.7916,218.906,45.1952 C218.139,44.1692,217.146,43.3244,215.994,42.7384 C216.414,41.3361,216.835,39.9338,217.255,38.5316 C217.925,38.3953,218.596,38.259,219.266,38.1228 C219.628,39.0513,220.319,39.6451,220.932,39.4913 C221.52,39.3433,221.842,38.553,221.76,37.6127 C221.77,37.6108,221.781,37.6088,221.791,37.6069 C221.739,37.3545,221.687,37.1021,221.635,36.8496 C221.625,36.8516,221.616,36.8535,221.606,36.8555 C221.275,35.7984,220.528,35.0917,219.866,35.2572 C219.229,35.4169,218.904,36.3318,219.067,37.3733 C218.546,37.4797,218.025,37.5862,217.504,37.6926 C218.182,35.4325,218.86,33.1725,219.539,30.9124 C221.6,31.3368,223.442,30.8054,223.804,29.5926 C224.203,28.2571,222.657,26.616,220.35,25.9288 C218.045,25.2397,215.853,25.7634,215.454,27.0988 C215.106,28.263,216.239,29.6607,218.063,30.455 C216.892,34.3588,215.72,38.2626,214.549,42.1664 C213.804,41.9484,213.019,41.8257,212.203,41.8257 C211.29,41.8257,210.414,41.9756,209.593,42.2462 C208.923,40.1224,208.252,37.9985,207.582,35.8747 C208.633,35.353,209.27,34.4828,209.056,33.708 C208.795,32.758,207.366,32.322,205.867,32.7346 C204.368,33.1474,203.365,34.2531,203.626,35.2031 C203.846,35.9993,204.886,36.4256,206.098,36.3029 C206.788,38.4897,207.478,40.6765,208.168,42.8633 C206.636,43.7082,205.403,45.0222,204.65,46.6088 C203.444,45.9917,202.237,45.3746,201.031,44.7575 C200.949,42.9989,200.866,41.2404,200.784,39.4819 C202.005,39.3339,202.923,38.6915,202.923,37.9206 C202.923,37.0407,201.728,36.3282,200.252,36.3282 C198.779,36.3282,197.584,37.0407,197.584,37.9206 C197.584,38.7499,198.652,39.4254,200.011,39.4975 C200.087,41.1152,200.163,42.7329,200.239,44.3506 C198.511,43.4668,196.783,42.583,195.055,41.6992 C195.945,39.2639,195.668,36.9493,194.35,36.3728 C192.931,35.7518,190.846,37.3831,189.692,40.017 C188.537,42.6509,188.751,45.2906,190.171,45.9136 C191.405,46.4547,193.145,45.2867,194.337,43.2368 C197.583,44.898,200.829,46.5592,204.076,48.2204 C203.922,48.8531,203.833,49.5111,203.833,50.1924 C203.833,51.3429,204.066,52.4389,204.485,53.4356 C204.388,53.2234,204.291,53.0113,204.195,52.7991 C201.679,53.9489,199.163,55.0988,196.647,56.2487 C195.878,55.2403,194.819,54.74,193.986,55.102 C192.911,55.5693,192.623,57.2862,193.342,58.9351 C194.06,60.582,195.514,61.5398,196.589,61.0707 C197.582,60.6385,197.891,59.1395,197.367,57.6133 C198.827,56.9463,200.287,56.2792,201.747,55.6121 C201.747,56.5751,201.747,57.5381,201.747,58.501 C200.671,58.7054,199.857,59.6496,199.857,60.7845 C199.857,62.0713,200.899,63.1128,202.185,63.1128 C203.472,63.1128,204.514,62.0713,204.514,60.7845 C204.514,59.6477,203.7,58.7054,202.623,58.501 C202.623,57.4044,202.623,56.3077,202.623,55.2111 C203.361,54.8743,204.098,54.5375,204.835,54.2008 C204.729,53.9678,204.622,53.7349,204.516,53.5019 C205.534,55.8613,207.607,57.6503,210.142,58.2947 C210.142,60.0144,210.142,61.7341,210.142,63.4537 C209.087,63.6211,208.316,64.1117,208.316,64.6996 C208.316,65.4218,209.48,66.0097,210.913,66.0097 C212.347,66.0097,213.509,65.4218,213.509,64.6996 C213.509,64.1117,212.738,63.6211,211.683,63.4537 C211.683,61.8139,211.683,60.1742,211.683,58.5344 C211.866,58.5441,212.036,58.5597,212.209,58.5597 C213.507,58.5597,214.732,58.256,215.83,57.7265 C215.978,58.0483,216.127,58.3702,216.276,58.6921 C215.647,59.1184,215.234,59.8387,215.234,60.6563 C215.234,61.9684,216.299,63.0313,217.609,63.0313 C218.921,63.0313,219.984,61.9684,219.984,60.6563 C219.984,59.3442,218.921,58.2813,217.609,58.2813 C217.391,58.2813,217.183,58.3202,216.98,58.3767 C216.824,58.038,216.668,57.6992,216.511,57.3605 C217.769,56.6032,218.814,55.5306,219.529,54.2438 C221.193,55.4449,222.858,56.6461,224.522,57.8472 C223.971,59.0736,223.965,60.228,224.594,60.6368 C225.363,61.1371,226.773,60.3273,227.746,58.8322 C228.717,57.3372,228.885,55.7195,228.116,55.2192 C227.485,54.8103,226.426,55.2892,225.529,56.2957 C224.494,55.5488,223.459,54.8019,222.424,54.055 C222.984,53.6092,223.545,53.1634,224.106,52.7176 C224.477,53.0116,224.943,53.1965,225.455,53.1965 C226.662,53.1965,227.637,52.2193,227.637,51.0143 C227.637,49.8092,226.66,48.832,225.455,48.832 C224.25,48.832,223.272,49.8092,223.272,51.0143 C223.272,51.427,223.393,51.8105,223.594,52.1395 C222.987,52.6222,222.38,53.105,221.773,53.5878 C221.265,53.2212,220.757,52.8545,220.249,52.4879 C220.457,51.7579,220.574,50.9909,220.574,50.1947 C220.574,48.8729,220.259,47.627,219.712,46.5154 C222.208,45.1319,224.704,43.7485,227.201,42.365 C228.447,44.3877,230.214,45.5226,231.357,44.9405 C232.624,44.2962,232.644,41.7966,231.406,39.3594 z"/>
        </defs>
        <use xlink:href="#10" style="fill:#a9a9a9;fill-opacity:1;fill-rule:nonzero;opacity:1;stroke:none;"/>
      </g>
    </defs>
    <use xlink:href="#9"/>
  </g>
  <g id="11">
    <title>Group</title>
    <defs>
      <title>Text</title>
      <g id="12">
        <defs>
          <path id="13" d="M260.829,60.9336 C258.55,60.9336,256.442,60.5556,254.504,59.7996 C252.567,59.0436,250.886,57.9847,249.463,56.623 C248.04,55.2613,246.933,53.6637,246.144,51.8304 C245.355,49.997,244.96,47.9919,244.96,45.8149 C244.96,43.6379,245.355,41.6339,246.144,39.803 C246.933,37.972,248.041,36.3736,249.468,35.0077 C250.894,33.6419,252.572,32.5827,254.501,31.8302 C256.43,31.0777,258.536,30.7014,260.819,30.7014 C263.105,30.7014,265.208,31.0755,267.129,31.8236 C269.049,32.5717,270.72,33.6248,272.141,34.9828 C273.562,36.3408,274.667,37.9395,275.457,39.779 C276.246,41.6185,276.641,43.6317,276.641,45.8188 C276.641,48.0059,276.246,50.019,275.457,51.8583 C274.667,53.6975,273.562,55.2958,272.141,56.6532 C270.72,58.0105,269.049,59.0632,267.129,59.8114 C265.208,60.5595,263.108,60.9336,260.829,60.9336 z M260.818,56.1659 C262.303,56.1659,263.671,55.9108,264.922,55.4007 C266.173,54.8906,267.263,54.1699,268.192,53.2387 C269.122,52.3075,269.846,51.2125,270.365,49.9538 C270.883,48.6951,271.143,47.3126,271.143,45.8063 C271.143,44.3,270.885,42.9222,270.368,41.6729 C269.852,40.4237,269.129,39.3329,268.199,38.4006 C267.268,37.4682,266.177,36.7466,264.925,36.2356 C263.672,35.7246,262.304,35.4691,260.819,35.4691 C259.334,35.4691,257.962,35.7249,256.704,36.2366 C255.446,36.7482,254.35,37.4711,253.415,38.4052 C252.48,39.3392,251.754,40.4318,251.235,41.6828 C250.717,42.9338,250.458,44.3081,250.458,45.8057 C250.458,47.3028,250.717,48.6807,251.234,49.9394 C251.751,51.1981,252.476,52.2972,253.409,53.2367 C254.342,54.1763,255.439,54.8993,256.699,55.406 C257.96,55.9126,259.333,56.1659,260.818,56.1659 z M282.447,60.5175 C282.447,60.5175,282.447,31.1175,282.447,31.1175 C282.447,31.1175,294.516,31.1175,294.516,31.1175 C297.114,31.1175,299.347,31.535,301.215,32.3699 C303.083,33.2049,304.52,34.4067,305.527,35.9754 C306.533,37.544,307.036,39.4136,307.036,41.584 C307.036,43.73,306.533,45.5793,305.527,47.132 C304.52,48.6847,303.083,49.8767,301.215,50.7082 C299.347,51.5397,297.114,51.9554,294.516,51.9554 C294.516,51.9554,285.462,51.9554,285.462,51.9554 C285.462,51.9554,287.897,49.4905,287.897,49.4905 C287.897,49.4905,287.897,60.5175,287.897,60.5175 C287.897,60.5175,282.447,60.5175,282.447,60.5175 z M301.654,60.5175 C301.654,60.5175,294.211,49.8442,294.211,49.8442 C294.211,49.8442,300.066,49.8442,300.066,49.8442 C300.066,49.8442,307.557,60.5175,307.557,60.5175 C307.557,60.5175,301.654,60.5175,301.654,60.5175 z M287.897,50.0707 C287.897,50.0707,285.462,47.4411,285.462,47.4411 C285.462,47.4411,294.289,47.4411,294.289,47.4411 C296.684,47.4411,298.492,46.9259,299.711,45.8956 C300.93,44.8653,301.539,43.4281,301.539,41.584 C301.539,39.7155,300.93,38.272,299.711,37.2538 C298.492,36.2355,296.684,35.7263,294.289,35.7263 C294.289,35.7263,285.462,35.7263,285.462,35.7263 C285.462,35.7263,287.897,33.0606,287.897,33.0606 C287.897,33.0606,287.897,50.0707,287.897,50.0707 z M326.862,60.9336 C324.58,60.9336,322.474,60.5626,320.545,59.8206 C318.616,59.0786,316.941,58.0277,315.52,56.6679 C314.098,55.3082,312.994,53.7086,312.206,51.8691 C311.419,50.0296,311.025,48.0124,311.025,45.8175 C311.025,43.6226,311.419,41.6054,312.206,39.7659 C312.994,37.9264,314.105,36.3268,315.541,34.9671 C316.976,33.6073,318.66,32.5564,320.592,31.8144 C322.525,31.0724,324.648,30.7014,326.962,30.7014 C329.436,30.7014,331.673,31.1061,333.674,31.9155 C335.676,32.7249,337.37,33.9177,338.757,35.494 C338.757,35.494,335.303,38.8494,335.303,38.8494 C334.16,37.6879,332.921,36.8341,331.587,36.2881 C330.253,35.7421,328.794,35.4691,327.21,35.4691 C325.655,35.4691,324.223,35.7224,322.914,36.229 C321.605,36.7356,320.473,37.4511,319.515,38.3753 C318.558,39.2995,317.82,40.3925,317.301,41.6542 C316.782,42.916,316.523,44.3037,316.523,45.8175 C316.523,47.2997,316.782,48.6726,317.301,49.9361 C317.82,51.1996,318.558,52.2996,319.515,53.2361 C320.473,54.1725,321.598,54.895,322.89,55.4033 C324.183,55.9117,325.605,56.1659,327.157,56.1659 C328.619,56.1659,330.027,55.9342,331.384,55.4709 C332.74,55.0076,334.033,54.2286,335.261,53.134 C335.261,53.134,338.356,57.1956,338.356,57.1956 C336.832,58.4241,335.056,59.3542,333.028,59.9859 C331,60.6177,328.945,60.9336,326.862,60.9336 z M333.219,56.4842 C333.219,56.4842,333.219,45.4946,333.219,45.4946 C333.219,45.4946,338.356,45.4946,338.356,45.4946 C338.356,45.4946,338.356,57.1956,338.356,57.1956 C338.356,57.1956,333.219,56.4842,333.219,56.4842 z"/>
        </defs>
        <use xlink:href="#13" style="fill:#000000;fill-opacity:1;fill-rule:nonzero;opacity:1;stroke:none;"/>
      </g>
    </defs>
    <use xlink:href="#12"/>
    <defs>
      <title>Text</title>
      <g id="14">
        <defs>
          <path id="15" d="M351.511,60.5175 C351.511,60.5175,351.511,31.1175,351.511,31.1175 C351.511,31.1175,356.002,31.1175,356.002,31.1175 C356.002,31.1175,368.859,52.5788,368.859,52.5788 C368.859,52.5788,366.477,52.5788,366.477,52.5788 C366.477,52.5788,379.144,31.1175,379.144,31.1175 C379.144,31.1175,383.635,31.1175,383.635,31.1175 C383.635,31.1175,383.683,60.5175,383.683,60.5175 C383.683,60.5175,378.492,60.5175,378.492,60.5175 C378.492,60.5175,378.445,39.2399,378.445,39.2399 C378.445,39.2399,379.544,39.2399,379.544,39.2399 C379.544,39.2399,368.806,57.1765,368.806,57.1765 C368.806,57.1765,366.34,57.1765,366.34,57.1765 C366.34,57.1765,355.449,39.2399,355.449,39.2399 C355.449,39.2399,356.701,39.2399,356.701,39.2399 C356.701,39.2399,356.701,60.5175,356.701,60.5175 C356.701,60.5175,351.511,60.5175,351.511,60.5175 z M401.01,60.5175 C401.01,60.5175,401.01,48.9032,401.01,48.9032 C401.01,48.9032,402.254,52.2291,402.254,52.2291 C402.254,52.2291,389.483,31.1175,389.483,31.1175 C389.483,31.1175,395.296,31.1175,395.296,31.1175 C395.296,31.1175,405.57,48.1295,405.57,48.1295 C405.57,48.1295,402.296,48.1295,402.296,48.1295 C402.296,48.1295,412.617,31.1175,412.617,31.1175 C412.617,31.1175,417.987,31.1175,417.987,31.1175 C417.987,31.1175,405.227,52.2291,405.227,52.2291 C405.227,52.2291,406.461,48.9032,406.461,48.9032 C406.461,48.9032,406.461,60.5175,406.461,60.5175 C406.461,60.5175,401.01,60.5175,401.01,60.5175 z M436.122,60.9336 C433.868,60.9336,431.782,60.5626,429.866,59.8206 C427.949,59.0786,426.286,58.0277,424.877,56.6679 C423.468,55.3082,422.37,53.7086,421.582,51.8691 C420.794,50.0296,420.401,48.0124,420.401,45.8175 C420.401,43.6226,420.794,41.6054,421.582,39.7659 C422.37,37.9264,423.474,36.3268,424.896,34.9671 C426.317,33.6073,427.986,32.5564,429.902,31.8144 C431.819,31.0724,433.905,30.7014,436.159,30.7014 C438.556,30.7014,440.751,31.114,442.746,31.9391 C444.74,32.7643,446.416,33.9827,447.775,35.5944 C447.775,35.5944,444.259,38.9492,444.259,38.9492 C443.196,37.7841,442.005,36.9128,440.687,36.3353 C439.369,35.7578,437.942,35.4691,436.407,35.4691 C434.883,35.4691,433.482,35.7224,432.203,36.229 C430.924,36.7357,429.813,37.4511,428.87,38.3753 C427.927,39.2995,427.196,40.3934,426.677,41.6569 C426.158,42.9204,425.899,44.3073,425.899,45.8175 C425.899,47.3278,426.158,48.7146,426.677,49.9781 C427.196,51.2416,427.927,52.3355,428.87,53.2597 C429.813,54.1839,430.924,54.8993,432.203,55.406 C433.482,55.9126,434.883,56.1659,436.407,56.1659 C437.942,56.1659,439.369,55.8772,440.687,55.2997 C442.005,54.7222,443.196,53.8386,444.259,52.6491 C444.259,52.6491,447.775,56.0045,447.775,56.0045 C446.416,57.6123,444.74,58.8358,442.746,59.6749 C440.751,60.514,438.543,60.9336,436.122,60.9336 z M468.393,60.9336 C466.114,60.9336,464.006,60.5556,462.068,59.7996 C460.131,59.0436,458.45,57.9847,457.027,56.623 C455.604,55.2613,454.497,53.6637,453.708,51.8304 C452.918,49.9971,452.524,47.9919,452.524,45.8149 C452.524,43.6379,452.918,41.6339,453.708,39.803 C454.497,37.972,455.605,36.3736,457.031,35.0078 C458.458,33.6419,460.135,32.5827,462.065,31.8302 C463.994,31.0777,466.1,30.7014,468.383,30.7014 C470.669,30.7014,472.772,31.0755,474.692,31.8236 C476.613,32.5718,478.284,33.6248,479.705,34.9828 C481.126,36.3408,482.231,37.9395,483.021,39.779 C483.81,41.6185,484.205,43.6318,484.205,45.8188 C484.205,48.0059,483.81,50.019,483.021,51.8583 C482.231,53.6975,481.126,55.2958,479.705,56.6532 C478.284,58.0105,476.613,59.0633,474.692,59.8114 C472.772,60.5595,470.672,60.9336,468.393,60.9336 z M468.382,56.1659 C469.867,56.1659,471.235,55.9108,472.486,55.4007 C473.737,54.8906,474.827,54.1699,475.756,53.2387 C476.686,52.3075,477.41,51.2125,477.928,49.9538 C478.447,48.6952,478.707,47.3127,478.707,45.8063 C478.707,44.3,478.449,42.9222,477.932,41.673 C477.416,40.4237,476.693,39.3329,475.762,38.4006 C474.832,37.4683,473.741,36.7466,472.488,36.2356 C471.236,35.7246,469.867,35.4691,468.383,35.4691 C466.898,35.4691,465.526,35.7249,464.268,36.2366 C463.01,36.7482,461.914,37.4711,460.979,38.4052 C460.044,39.3392,459.318,40.4318,458.799,41.6828 C458.281,42.9338,458.022,44.3081,458.022,45.8057 C458.022,47.3028,458.28,48.6807,458.798,49.9394 C459.315,51.1981,460.04,52.2972,460.973,53.2367 C461.906,54.1763,463.002,54.8993,464.263,55.406 C465.524,55.9126,466.897,56.1659,468.382,56.1659 z M492.211,60.5175 C492.211,60.5175,492.211,31.1175,492.211,31.1175 C492.211,31.1175,497.661,31.1175,497.661,31.1175 C497.661,31.1175,497.661,55.9034,497.661,55.9034 C497.661,55.9034,513.018,55.9034,513.018,55.9034 C513.018,55.9034,513.018,60.5175,513.018,60.5175 C513.018,60.5175,492.211,60.5175,492.211,60.5175 z M532.769,60.9336 C530.491,60.9336,528.382,60.5556,526.445,59.7996 C524.507,59.0436,522.826,57.9847,521.403,56.623 C519.98,55.2613,518.874,53.6637,518.084,51.8304 C517.295,49.9971,516.9,47.9919,516.9,45.8149 C516.9,43.6379,517.295,41.6339,518.084,39.803 C518.874,37.972,519.982,36.3736,521.408,35.0078 C522.834,33.6419,524.512,32.5827,526.441,31.8302 C528.37,31.0777,530.476,30.7014,532.759,30.7014 C535.045,30.7014,537.148,31.0755,539.069,31.8236 C540.99,32.5718,542.66,33.6248,544.081,34.9828 C545.502,36.3408,546.607,37.9395,547.397,39.779 C548.186,41.6185,548.581,43.6318,548.581,45.8188 C548.581,48.0059,548.186,50.019,547.397,51.8583 C546.607,53.6975,545.502,55.2958,544.081,56.6532 C542.66,58.0105,540.99,59.0633,539.069,59.8114 C537.148,60.5595,535.048,60.9336,532.769,60.9336 z M532.758,56.1659 C534.243,56.1659,535.611,55.9108,536.862,55.4007 C538.113,54.8906,539.203,54.1699,540.133,53.2387 C541.062,52.3075,541.786,51.2125,542.305,49.9538 C542.824,48.6952,543.083,47.3127,543.083,45.8063 C543.083,44.3,542.825,42.9222,542.309,41.673 C541.792,40.4237,541.069,39.3329,540.139,38.4006 C539.208,37.4683,538.117,36.7466,536.865,36.2356 C535.612,35.7246,534.244,35.4691,532.759,35.4691 C531.274,35.4691,529.903,35.7249,528.645,36.2366 C527.387,36.7482,526.29,37.4711,525.356,38.4052 C524.421,39.3392,523.694,40.4318,523.176,41.6828 C522.657,42.9338,522.398,44.3081,522.398,45.8057 C522.398,47.3028,522.657,48.6807,523.174,49.9394 C523.691,51.1981,524.417,52.2972,525.349,53.2367 C526.282,54.1763,527.379,54.8993,528.64,55.406 C529.901,55.9126,531.273,56.1659,532.758,56.1659 z M570.297,60.9336 C568.015,60.9336,565.909,60.5626,563.98,59.8206 C562.051,59.0786,560.376,58.0277,558.955,56.6679 C557.534,55.3082,556.429,53.7086,555.642,51.8691 C554.854,50.0296,554.46,48.0124,554.46,45.8175 C554.46,43.6226,554.854,41.6054,555.642,39.7659 C556.429,37.9264,557.541,36.3268,558.976,34.9671 C560.411,33.6073,562.095,32.5564,564.028,31.8144 C565.96,31.0724,568.083,30.7014,570.398,30.7014 C572.871,30.7014,575.108,31.1061,577.11,31.9155 C579.111,32.7249,580.805,33.9177,582.192,35.494 C582.192,35.494,578.739,38.8494,578.739,38.8494 C577.596,37.6879,576.357,36.8341,575.023,36.2881 C573.689,35.7421,572.229,35.4691,570.645,35.4691 C569.09,35.4691,567.658,35.7224,566.35,36.229 C565.041,36.7357,563.908,37.4511,562.951,38.3753 C561.993,39.2995,561.255,40.3925,560.736,41.6543 C560.218,42.916,559.958,44.3038,559.958,45.8175 C559.958,47.2998,560.218,48.6726,560.736,49.9361 C561.255,51.1996,561.993,52.2996,562.951,53.2361 C563.908,54.1725,565.033,54.895,566.326,55.4033 C567.619,55.9117,569.041,56.1659,570.593,56.1659 C572.054,56.1659,573.463,55.9343,574.819,55.4709 C576.176,55.0076,577.468,54.2287,578.697,53.134 C578.697,53.134,581.791,57.1956,581.791,57.1956 C580.267,58.4241,578.491,59.3542,576.464,59.9859 C574.436,60.6177,572.38,60.9336,570.297,60.9336 z M576.654,56.4842 C576.654,56.4842,576.654,45.4946,576.654,45.4946 C576.654,45.4946,581.791,45.4946,581.791,45.4946 C581.791,45.4946,581.791,57.1956,581.791,57.1956 C581.791,57.1956,576.654,56.4842,576.654,56.4842 z M598.389,60.5175 C598.389,60.5175,598.389,48.9032,598.389,48.9032 C598.389,48.9032,599.633,52.2291,599.633,52.2291 C599.633,52.2291,586.862,31.1175,586.862,31.1175 C586.862,31.1175,592.676,31.1175,592.676,31.1175 C592.676,31.1175,602.949,48.1295,602.949,48.1295 C602.949,48.1295,599.675,48.1295,599.675,48.1295 C599.675,48.1295,609.996,31.1175,609.996,31.1175 C609.996,31.1175,615.366,31.1175,615.366,31.1175 C615.366,31.1175,602.606,52.2291,602.606,52.2291 C602.606,52.2291,603.84,48.9032,603.84,48.9032 C603.84,48.9032,603.84,60.5175,603.84,60.5175 C603.84,60.5175,598.389,60.5175,598.389,60.5175 z"/>
        </defs>
        <use xlink:href="#15" style="fill:#000000;fill-opacity:0.50851;fill-rule:nonzero;opacity:1;stroke:none;"/>
      </g>
    </defs>
    <use xlink:href="#14"/>
  </g>
  <defs>
    <title>Text</title>
    <g id="16">
      <defs>
        <path id="17" d="M360.531,71.0648 C361.006,71.0648,361.427,71.1567,361.794,71.3404 C362.162,71.5242,362.452,71.8061,362.666,72.1862 C362.879,72.5662,362.985,73.0524,362.985,73.6448 C362.985,73.6448,362.985,77.0097,362.985,77.0097 C362.985,77.0097,361.61,77.0097,361.61,77.0097 C361.61,77.0097,361.61,73.8247,361.61,73.8247 C361.61,73.3039,361.488,72.9152,361.245,72.6586 C361.001,72.4019,360.657,72.2736,360.212,72.2736 C359.891,72.2736,359.605,72.3392,359.357,72.4704 C359.109,72.6017,358.917,72.7968,358.781,73.0558 C358.646,73.3149,358.578,73.6426,358.578,74.0391 C358.578,74.0391,358.578,77.0097,358.578,77.0097 C358.578,77.0097,357.203,77.0097,357.203,77.0097 C357.203,77.0097,357.203,68.8477,357.203,68.8477 C357.203,68.8477,358.578,68.8477,358.578,68.8477 C358.578,68.8477,358.578,72.724,358.578,72.724 C358.578,72.724,358.281,72.2371,358.281,72.2371 C358.484,71.8591,358.782,71.5692,359.175,71.3674 C359.568,71.1656,360.02,71.0648,360.531,71.0648 z M366.948,77.0814 C366.305,77.0814,365.806,76.9151,365.453,76.5825 C365.099,76.2498,364.923,75.7586,364.923,75.1088 C364.923,75.1088,364.923,69.8408,364.923,69.8408 C364.923,69.8408,366.298,69.8408,366.298,69.8408 C366.298,69.8408,366.298,75.0772,366.298,75.0772 C366.298,75.3563,366.369,75.5727,366.513,75.7264 C366.657,75.8801,366.859,75.957,367.121,75.957 C367.423,75.957,367.677,75.8765,367.883,75.7155 C367.883,75.7155,368.276,76.6954,368.276,76.6954 C368.111,76.8245,367.91,76.9211,367.675,76.9853 C367.439,77.0494,367.197,77.0814,366.948,77.0814 z M363.963,72.2758 C363.963,72.2758,363.963,71.1791,363.963,71.1791 C363.963,71.1791,367.874,71.1791,367.874,71.1791 C367.874,71.1791,367.874,72.2758,367.874,72.2758 C367.874,72.2758,363.963,72.2758,363.963,72.2758 z M371.615,77.0814 C370.972,77.0814,370.473,76.9151,370.12,76.5825 C369.767,76.2498,369.59,75.7586,369.59,75.1088 C369.59,75.1088,369.59,69.8408,369.59,69.8408 C369.59,69.8408,370.965,69.8408,370.965,69.8408 C370.965,69.8408,370.965,75.0772,370.965,75.0772 C370.965,75.3563,371.037,75.5727,371.18,75.7264 C371.324,75.8801,371.527,75.957,371.788,75.957 C372.09,75.957,372.344,75.8765,372.55,75.7155 C372.55,75.7155,372.943,76.6954,372.943,76.6954 C372.778,76.8245,372.578,76.9211,372.342,76.9853 C372.106,77.0494,371.864,77.0814,371.615,77.0814 z M368.631,72.2758 C368.631,72.2758,368.631,71.1791,368.631,71.1791 C368.631,71.1791,372.542,71.1791,372.542,71.1791 C372.542,71.1791,372.542,72.2758,372.542,72.2758 C372.542,72.2758,368.631,72.2758,368.631,72.2758 z M377.336,77.0814 C376.854,77.0814,376.417,76.9728,376.025,76.7555 C375.633,76.5383,375.322,76.2069,375.094,75.7612 C374.866,75.3156,374.751,74.7531,374.751,74.0738 C374.751,73.386,374.862,72.821,375.082,72.3787 C375.303,71.9363,375.609,71.6067,376,71.3899 C376.392,71.1732,376.837,71.0648,377.336,71.0648 C377.909,71.0648,378.419,71.1897,378.865,71.4394 C379.311,71.6892,379.663,72.039,379.921,72.4887 C380.179,72.9383,380.307,73.4667,380.307,74.0738 C380.307,74.6808,380.179,75.2092,379.921,75.6589 C379.663,76.1086,379.311,76.4581,378.865,76.7074 C378.419,76.9567,377.909,77.0814,377.336,77.0814 z M374.078,79.1437 C374.078,79.1437,374.078,71.1364,374.078,71.1364 C374.078,71.1364,375.389,71.1364,375.389,71.1364 C375.389,71.1364,375.389,72.525,375.389,72.525 C375.389,72.525,375.343,74.0834,375.343,74.0834 C375.343,74.0834,375.453,75.6416,375.453,75.6416 C375.453,75.6416,375.453,79.1437,375.453,79.1437 C375.453,79.1437,374.078,79.1437,374.078,79.1437 z M377.173,75.9116 C377.503,75.9116,377.799,75.8373,378.061,75.6886 C378.323,75.54,378.531,75.3265,378.686,75.0484 C378.841,74.7702,378.918,74.4454,378.918,74.0738 C378.918,73.6948,378.841,73.3679,378.686,73.093 C378.531,72.818,378.323,72.6062,378.061,72.4576 C377.799,72.3089,377.503,72.2345,377.173,72.2345 C376.843,72.2345,376.547,72.3089,376.286,72.4576 C376.024,72.6062,375.816,72.818,375.661,73.093 C375.506,73.3679,375.428,73.6948,375.428,74.0738 C375.428,74.4454,375.506,74.7702,375.661,75.0484 C375.816,75.3265,376.024,75.54,376.286,75.6886 C376.547,75.8373,376.843,75.9116,377.173,75.9116 z M383.442,77.0814 C382.948,77.0814,382.476,77.0184,382.025,76.8924 C381.574,76.7665,381.217,76.6123,380.954,76.43 C380.954,76.43,381.483,75.3848,381.483,75.3848 C381.743,75.5535,382.057,75.6919,382.425,75.8 C382.793,75.9081,383.16,75.9622,383.526,75.9622 C383.961,75.9622,384.275,75.9046,384.467,75.7893 C384.66,75.6741,384.756,75.5151,384.756,75.3121 C384.756,75.1539,384.69,75.0323,384.559,74.9472 C384.428,74.8622,384.255,74.7975,384.04,74.7532 C383.825,74.7089,383.589,74.6686,383.33,74.6324 C383.072,74.5962,382.813,74.5467,382.554,74.4839 C382.295,74.4211,382.058,74.3301,381.843,74.2108 C381.629,74.0916,381.456,73.9281,381.325,73.7204 C381.194,73.5127,381.128,73.2397,381.128,72.9014 C381.128,72.5329,381.234,72.2106,381.446,71.9345 C381.658,71.6584,381.956,71.4445,382.341,71.2926 C382.726,71.1407,383.182,71.0648,383.71,71.0648 C384.105,71.0648,384.505,71.1099,384.91,71.2001 C385.315,71.2903,385.65,71.4166,385.914,71.5788 C385.914,71.5788,385.385,72.624,385.385,72.624 C385.109,72.4553,384.829,72.3398,384.545,72.2775 C384.26,72.2152,383.98,72.184,383.705,72.184 C383.287,72.184,382.977,72.2453,382.774,72.3678 C382.571,72.4904,382.469,72.649,382.469,72.8437 C382.469,73.0146,382.535,73.1444,382.666,73.2331 C382.797,73.3218,382.97,73.3915,383.185,73.4423 C383.4,73.4931,383.636,73.5365,383.895,73.5727 C384.153,73.6088,384.412,73.6586,384.67,73.7219 C384.929,73.7852,385.165,73.8748,385.38,73.9908 C385.595,74.1069,385.768,74.2671,385.899,74.4717 C386.03,74.6762,386.096,74.9444,386.096,75.2762 C386.096,75.642,385.988,75.9599,385.774,76.2301 C385.559,76.5003,385.254,76.7097,384.859,76.8584 C384.465,77.0071,383.992,77.0814,383.442,77.0814 z M387.731,72.8957 C387.482,72.8957,387.269,72.8096,387.093,72.6372 C386.917,72.4649,386.829,72.2467,386.829,71.9827 C386.829,71.7041,386.917,71.4822,387.093,71.3172 C387.269,71.1522,387.482,71.0697,387.731,71.0697 C387.981,71.0697,388.193,71.1522,388.369,71.3172 C388.545,71.4822,388.633,71.7041,388.633,71.9827 C388.633,72.2467,388.545,72.4649,388.369,72.6372 C388.193,72.8096,387.981,72.8957,387.731,72.8957 z M387.731,77.0867 C387.482,77.0867,387.269,77.0006,387.093,76.8282 C386.917,76.6559,386.829,76.4377,386.829,76.1737 C386.829,75.8951,386.917,75.6732,387.093,75.5082 C387.269,75.3432,387.482,75.2607,387.731,75.2607 C387.981,75.2607,388.193,75.3432,388.369,75.5082 C388.545,75.6732,388.633,75.8951,388.633,76.1737 C388.633,76.4377,388.545,76.6559,388.369,76.8282 C388.193,77.0006,387.981,77.0867,387.731,77.0867 z M388.738,78.1097 C388.738,78.1097,392.368,67.7477,392.368,67.7477 C392.368,67.7477,393.601,67.7477,393.601,67.7477 C393.601,67.7477,389.971,78.1097,389.971,78.1097 C389.971,78.1097,388.738,78.1097,388.738,78.1097 z M392.821,78.1097 C392.821,78.1097,396.451,67.7477,396.451,67.7477 C396.451,67.7477,397.684,67.7477,397.684,67.7477 C397.684,67.7477,394.054,78.1097,394.054,78.1097 C394.054,78.1097,392.821,78.1097,392.821,78.1097 z M400.786,77.0814 C400.184,77.0814,399.647,76.9524,399.175,76.6943 C398.704,76.4362,398.332,76.0798,398.06,75.6253 C397.788,75.1707,397.652,74.6525,397.652,74.0707 C397.652,73.4823,397.789,72.9629,398.062,72.5124 C398.335,72.0619,398.706,71.708,399.175,71.4507 C399.644,71.1934,400.181,71.0648,400.786,71.0648 C401.392,71.0648,401.931,71.1932,402.404,71.4501 C402.877,71.707,403.248,72.0603,403.517,72.5101 C403.786,72.9598,403.92,73.4801,403.92,74.0709 C403.92,74.655,403.786,75.1737,403.518,75.6271 C403.25,76.0804,402.878,76.4362,402.403,76.6943 C401.927,76.9524,401.389,77.0814,400.786,77.0814 z M400.786,75.9116 C401.123,75.9116,401.422,75.8373,401.684,75.6886 C401.945,75.54,402.152,75.3263,402.304,75.0477 C402.456,74.7691,402.531,74.4436,402.531,74.0712 C402.531,73.6931,402.456,73.3668,402.304,73.0923 C402.152,72.8178,401.945,72.6062,401.684,72.4576 C401.422,72.3089,401.125,72.2345,400.791,72.2345 C400.458,72.2345,400.16,72.3089,399.899,72.4576 C399.637,72.6062,399.429,72.8178,399.274,73.0923 C399.119,73.3668,399.041,73.6931,399.041,74.0712 C399.041,74.4436,399.119,74.7691,399.274,75.0477 C399.429,75.3263,399.637,75.54,399.898,75.6886 C400.159,75.8373,400.455,75.9116,400.786,75.9116 z M405.238,77.0097 C405.238,77.0097,405.238,71.1364,405.238,71.1364 C405.238,71.1364,406.549,71.1364,406.549,71.1364 C406.549,71.1364,406.549,72.7503,406.549,72.7503 C406.549,72.7503,406.394,72.2811,406.394,72.2811 C406.565,71.882,406.84,71.5795,407.221,71.3736 C407.602,71.1677,408.072,71.0648,408.63,71.0648 C408.63,71.0648,408.63,72.3739,408.63,72.3739 C408.571,72.3657,408.517,72.3595,408.468,72.3554 C408.419,72.3512,408.369,72.3492,408.32,72.3492 C407.799,72.3492,407.384,72.5006,407.076,72.8034 C406.767,73.1063,406.613,73.5599,406.613,74.1644 C406.613,74.1644,406.613,77.0097,406.613,77.0097 C406.613,77.0097,405.238,77.0097,405.238,77.0097 z M412.517,79.2154 C411.974,79.2154,411.445,79.1451,410.931,79.0044 C410.417,78.8638,409.992,78.6561,409.656,78.3813 C409.656,78.3813,410.272,77.3482,410.272,77.3482 C410.532,77.5634,410.858,77.7353,411.25,77.864 C411.641,77.9926,412.04,78.057,412.446,78.057 C413.093,78.057,413.567,77.9089,413.867,77.6128 C414.166,77.3166,414.316,76.8711,414.316,76.2762 C414.316,76.2762,414.316,75.2243,414.316,75.2243 C414.316,75.2243,414.426,73.9002,414.426,73.9002 C414.426,73.9002,414.38,72.5666,414.38,72.5666 C414.38,72.5666,414.38,71.1364,414.38,71.1364 C414.38,71.1364,415.691,71.1364,415.691,71.1364 C415.691,71.1364,415.691,76.1172,415.691,76.1172 C415.691,77.1811,415.42,77.9634,414.877,78.4642 C414.333,78.965,413.547,79.2154,412.517,79.2154 z M412.349,76.7468 C411.785,76.7468,411.279,76.6276,410.829,76.3893 C410.38,76.1509,410.024,75.8186,409.762,75.3924 C409.501,74.9661,409.37,74.4687,409.37,73.9002 C409.37,73.3317,409.501,72.8344,409.762,72.4081 C410.024,71.9819,410.38,71.6514,410.829,71.4168 C411.279,71.1821,411.785,71.0648,412.349,71.0648 C412.844,71.0648,413.29,71.1642,413.688,71.3631 C414.085,71.562,414.403,71.8712,414.641,72.2907 C414.879,72.7101,414.998,73.2466,414.998,73.9002 C414.998,74.5539,414.879,75.0904,414.641,75.5099 C414.403,75.9293,414.085,76.2403,413.688,76.4429 C413.29,76.6455,412.844,76.7468,412.349,76.7468 z M412.549,75.577 C412.9,75.577,413.21,75.5063,413.479,75.365 C413.748,75.2236,413.959,75.027,414.11,74.7749 C414.262,74.5229,414.338,74.2313,414.338,73.9002 C414.338,73.5681,414.262,73.2763,414.11,73.0248 C413.959,72.7733,413.748,72.5787,413.479,72.441 C413.21,72.3034,412.9,72.2345,412.549,72.2345 C412.205,72.2345,411.897,72.3034,411.624,72.441 C411.352,72.5787,411.139,72.7733,410.987,73.0248 C410.835,73.2763,410.758,73.5681,410.758,73.9002 C410.758,74.2313,410.835,74.5229,410.987,74.7749 C411.139,75.027,411.352,75.2236,411.624,75.365 C411.897,75.5063,412.205,75.577,412.549,75.577 z M424.909,71.0648 C425.382,71.0648,425.801,71.1567,426.164,71.3404 C426.527,71.5242,426.811,71.8061,427.017,72.1862 C427.223,72.5662,427.326,73.0524,427.326,73.6448 C427.326,73.6448,427.326,77.0097,427.326,77.0097 C427.326,77.0097,425.951,77.0097,425.951,77.0097 C425.951,77.0097,425.951,73.8247,425.951,73.8247 C425.951,73.3039,425.836,72.9152,425.606,72.6586 C425.376,72.4019,425.05,72.2736,424.628,72.2736 C424.329,72.2736,424.062,72.339,423.83,72.4697 C423.598,72.6005,423.418,72.7943,423.291,73.0509 C423.164,73.3076,423.1,73.6322,423.1,74.0248 C423.1,74.0248,423.1,77.0097,423.1,77.0097 C423.1,77.0097,421.725,77.0097,421.725,77.0097 C421.725,77.0097,421.725,73.8247,421.725,73.8247 C421.725,73.3039,421.611,72.9152,421.382,72.6586 C421.153,72.4019,420.826,72.2736,420.403,72.2736 C420.103,72.2736,419.837,72.339,419.605,72.4697 C419.373,72.6005,419.193,72.7943,419.066,73.0509 C418.939,73.3076,418.875,73.6322,418.875,74.0248 C418.875,74.0248,418.875,77.0097,418.875,77.0097 C418.875,77.0097,417.5,77.0097,417.5,77.0097 C417.5,77.0097,417.5,71.1364,417.5,71.1364 C417.5,71.1364,418.811,71.1364,418.811,71.1364 C418.811,71.1364,418.811,72.7007,418.811,72.7007 C418.811,72.7007,418.577,72.2357,418.577,72.2357 C418.772,71.8577,419.059,71.5681,419.437,71.3667 C419.815,71.1654,420.248,71.0648,420.737,71.0648 C421.284,71.0648,421.761,71.2007,422.168,71.4724 C422.575,71.7442,422.845,72.158,422.978,72.7137 C422.978,72.7137,422.439,72.5257,422.439,72.5257 C422.627,72.0844,422.942,71.7306,423.383,71.4643 C423.823,71.1979,424.332,71.0648,424.909,71.0648 z M429.57,79.2154 C429.279,79.2154,428.991,79.1691,428.708,79.0765 C428.424,78.984,428.186,78.8506,427.994,78.6764 C427.994,78.6764,428.541,77.6706,428.541,77.6706 C428.678,77.7979,428.835,77.8972,429.012,77.9686 C429.189,78.04,429.37,78.0757,429.555,78.0757 C429.8,78.0757,430.001,78.0139,430.157,77.8903 C430.312,77.7668,430.455,77.5558,430.586,77.2576 C430.586,77.2576,430.925,76.4951,430.925,76.4951 C430.925,76.4951,431.044,76.3298,431.044,76.3298 C431.044,76.3298,433.256,71.1364,433.256,71.1364 C433.256,71.1364,434.585,71.1364,434.585,71.1364 C434.585,71.1364,431.833,77.4852,431.833,77.4852 C431.651,77.9265,431.447,78.2741,431.222,78.5278 C430.996,78.7816,430.746,78.9596,430.474,79.0619 C430.201,79.1643,429.9,79.2154,429.57,79.2154 z M430.776,77.2177 C430.776,77.2177,428.129,71.1364,428.129,71.1364 C428.129,71.1364,429.551,71.1364,429.551,71.1364 C429.551,71.1364,431.709,76.2055,431.709,76.2055 C431.709,76.2055,430.776,77.2177,430.776,77.2177 z M438.128,77.0814 C437.515,77.0814,436.968,76.9526,436.487,76.695 C436.006,76.4375,435.629,76.0817,435.357,75.6279 C435.085,75.174,434.948,74.6555,434.948,74.0724 C434.948,73.4829,435.085,72.963,435.357,72.5128 C435.629,72.0626,436.006,71.7087,436.487,71.4511 C436.968,71.1936,437.515,71.0648,438.128,71.0648 C438.702,71.0648,439.207,71.1809,439.645,71.4132 C440.083,71.6456,440.413,71.9861,440.637,72.4349 C440.637,72.4349,439.583,73.0552,439.583,73.0552 C439.408,72.7766,439.193,72.5701,438.94,72.4359 C438.687,72.3017,438.413,72.2345,438.117,72.2345 C437.78,72.2345,437.477,72.3089,437.208,72.4576 C436.939,72.6062,436.726,72.8178,436.571,73.0923 C436.415,73.3668,436.337,73.6935,436.337,74.0724 C436.337,74.4513,436.415,74.7783,436.571,75.0532 C436.726,75.3281,436.939,75.54,437.208,75.6886 C437.477,75.8373,437.78,75.9116,438.117,75.9116 C438.413,75.9116,438.687,75.8461,438.94,75.7151 C439.193,75.5841,439.408,75.376,439.583,75.0909 C439.583,75.0909,440.637,75.7112,440.637,75.7112 C440.413,76.1536,440.083,76.4926,439.645,76.7281 C439.207,76.9637,438.702,77.0814,438.128,77.0814 z M444.474,77.0814 C443.871,77.0814,443.334,76.9524,442.863,76.6943 C442.391,76.4362,442.02,76.0798,441.748,75.6253 C441.476,75.1707,441.34,74.6525,441.34,74.0707 C441.34,73.4823,441.476,72.9629,441.75,72.5124 C442.023,72.0619,442.394,71.708,442.863,71.4507 C443.331,71.1934,443.869,71.0648,444.474,71.0648 C445.079,71.0648,445.619,71.1932,446.091,71.4501 C446.564,71.707,446.935,72.0603,447.204,72.5101 C447.473,72.9598,447.608,73.4801,447.608,74.0709 C447.608,74.655,447.474,75.1737,447.206,75.6271 C446.937,76.0804,446.566,76.4362,446.09,76.6943 C445.615,76.9524,445.076,77.0814,444.474,77.0814 z M444.474,75.9116 C444.811,75.9116,445.11,75.8373,445.371,75.6886 C445.633,75.54,445.84,75.3263,445.991,75.0477 C446.143,74.7691,446.219,74.4436,446.219,74.0712 C446.219,73.6931,446.143,73.3668,445.991,73.0923 C445.84,72.8178,445.633,72.6062,445.371,72.4576 C445.11,72.3089,444.812,72.2345,444.479,72.2345 C444.145,72.2345,443.848,72.3089,443.586,72.4576 C443.325,72.6062,443.116,72.8178,442.961,73.0923 C442.806,73.3668,442.729,73.6931,442.729,74.0712 C442.729,74.4436,442.806,74.7691,442.961,75.0477 C443.116,75.3263,443.324,75.54,443.586,75.6886 C443.847,75.8373,444.143,75.9116,444.474,75.9116 z M448.925,77.0097 C448.925,77.0097,448.925,68.8477,448.925,68.8477 C448.925,68.8477,450.3,68.8477,450.3,68.8477 C450.3,68.8477,450.3,77.0097,450.3,77.0097 C450.3,77.0097,448.925,77.0097,448.925,77.0097 z M454.752,77.0814 C454.149,77.0814,453.612,76.9524,453.141,76.6943 C452.669,76.4362,452.297,76.0798,452.026,75.6253 C451.754,75.1707,451.618,74.6525,451.618,74.0707 C451.618,73.4823,451.754,72.9629,452.027,72.5124 C452.3,72.0619,452.671,71.708,453.14,71.4507 C453.609,71.1934,454.146,71.0648,454.752,71.0648 C455.357,71.0648,455.896,71.1932,456.369,71.4501 C456.842,71.707,457.213,72.0603,457.482,72.5101 C457.751,72.9598,457.886,73.4801,457.886,74.0709 C457.886,74.655,457.752,75.1737,457.483,75.6271 C457.215,76.0804,456.843,76.4362,456.368,76.6943 C455.893,76.9524,455.354,77.0814,454.752,77.0814 z M454.752,75.9116 C455.088,75.9116,455.387,75.8373,455.649,75.6886 C455.911,75.54,456.117,75.3263,456.269,75.0477 C456.421,74.7691,456.497,74.4436,456.497,74.0712 C456.497,73.6931,456.421,73.3668,456.269,73.0923 C456.117,72.8178,455.911,72.6062,455.649,72.4576 C455.387,72.3089,455.09,72.2345,454.757,72.2345 C454.423,72.2345,454.126,72.3089,453.864,72.4576 C453.603,72.6062,453.394,72.8178,453.239,73.0923 C453.084,73.3668,453.006,73.6931,453.006,74.0712 C453.006,74.4436,453.084,74.7691,453.239,75.0477 C453.394,75.3263,453.602,75.54,453.863,75.6886 C454.125,75.8373,454.421,75.9116,454.752,75.9116 z M461.859,79.2154 C461.316,79.2154,460.787,79.1451,460.273,79.0044 C459.759,78.8638,459.334,78.6561,458.998,78.3813 C458.998,78.3813,459.614,77.3482,459.614,77.3482 C459.874,77.5634,460.2,77.7353,460.592,77.864 C460.983,77.9926,461.382,78.057,461.788,78.057 C462.435,78.057,462.909,77.9089,463.209,77.6128 C463.508,77.3166,463.658,76.8711,463.658,76.2762 C463.658,76.2762,463.658,75.2243,463.658,75.2243 C463.658,75.2243,463.768,73.9002,463.768,73.9002 C463.768,73.9002,463.722,72.5666,463.722,72.5666 C463.722,72.5666,463.722,71.1364,463.722,71.1364 C463.722,71.1364,465.033,71.1364,465.033,71.1364 C465.033,71.1364,465.033,76.1172,465.033,76.1172 C465.033,77.1811,464.762,77.9634,464.219,78.4642 C463.676,78.965,462.889,79.2154,461.859,79.2154 z M461.691,76.7468 C461.127,76.7468,460.621,76.6276,460.171,76.3893 C459.722,76.1509,459.366,75.8186,459.104,75.3924 C458.843,74.9661,458.712,74.4687,458.712,73.9002 C458.712,73.3317,458.843,72.8344,459.104,72.4081 C459.366,71.9819,459.722,71.6514,460.171,71.4168 C460.621,71.1821,461.127,71.0648,461.691,71.0648 C462.186,71.0648,462.632,71.1642,463.03,71.3631 C463.427,71.562,463.745,71.8712,463.983,72.2907 C464.221,72.7101,464.34,73.2466,464.34,73.9002 C464.34,74.5539,464.221,75.0904,463.983,75.5099 C463.745,75.9293,463.427,76.2403,463.03,76.4429 C462.632,76.6455,462.186,76.7468,461.691,76.7468 z M461.891,75.577 C462.242,75.577,462.553,75.5063,462.821,75.365 C463.09,75.2236,463.301,75.027,463.453,74.7749 C463.604,74.5229,463.68,74.2313,463.68,73.9002 C463.68,73.5681,463.604,73.2763,463.453,73.0248 C463.301,72.7733,463.09,72.5787,462.821,72.441 C462.553,72.3034,462.242,72.2345,461.891,72.2345 C461.547,72.2345,461.239,72.3034,460.966,72.441 C460.694,72.5787,460.481,72.7733,460.329,73.0248 C460.177,73.2763,460.1,73.5681,460.1,73.9002 C460.1,74.2313,460.177,74.5229,460.329,74.7749 C460.481,75.027,460.694,75.2236,460.966,75.365 C461.239,75.5063,461.547,75.577,461.891,75.577 z M467.329,79.2154 C467.037,79.2154,466.75,79.1691,466.466,79.0765 C466.182,78.984,465.944,78.8506,465.752,78.6764 C465.752,78.6764,466.299,77.6706,466.299,77.6706 C466.437,77.7979,466.594,77.8972,466.771,77.9686 C466.947,78.04,467.128,78.0757,467.313,78.0757 C467.559,78.0757,467.759,78.0139,467.915,77.8903 C468.071,77.7668,468.214,77.5558,468.345,77.2576 C468.345,77.2576,468.684,76.4951,468.684,76.4951 C468.684,76.4951,468.802,76.3298,468.802,76.3298 C468.802,76.3298,471.015,71.1364,471.015,71.1364 C471.015,71.1364,472.344,71.1364,472.344,71.1364 C472.344,71.1364,469.591,77.4852,469.591,77.4852 C469.41,77.9265,469.206,78.2741,468.98,78.5278 C468.754,78.7816,468.505,78.9596,468.232,79.0619 C467.96,79.1643,467.658,79.2154,467.329,79.2154 z M468.534,77.2177 C468.534,77.2177,465.888,71.1364,465.888,71.1364 C465.888,71.1364,467.31,71.1364,467.31,71.1364 C467.31,71.1364,469.468,76.2055,469.468,76.2055 C469.468,76.2055,468.534,77.2177,468.534,77.2177 z M473.64,77.0814 C473.389,77.0814,473.175,76.9955,472.999,76.8236 C472.822,76.6517,472.734,76.4334,472.734,76.1686 C472.734,75.8966,472.822,75.6769,472.999,75.5096 C473.175,75.3423,473.389,75.2587,473.64,75.2587 C473.885,75.2587,474.096,75.3423,474.272,75.5096 C474.448,75.6769,474.537,75.8966,474.537,76.1686 C474.537,76.4334,474.448,76.6517,474.272,76.8236 C474.096,76.9955,473.885,77.0814,473.64,77.0814 z M478.57,77.0814 C477.957,77.0814,477.41,76.9526,476.929,76.695 C476.448,76.4375,476.071,76.0817,475.799,75.6279 C475.526,75.174,475.39,74.6555,475.39,74.0724 C475.39,73.4829,475.526,72.963,475.799,72.5128 C476.071,72.0626,476.448,71.7087,476.929,71.4511 C477.41,71.1936,477.957,71.0648,478.57,71.0648 C479.143,71.0648,479.649,71.1809,480.087,71.4132 C480.524,71.6456,480.855,71.9861,481.078,72.4349 C481.078,72.4349,480.025,73.0552,480.025,73.0552 C479.849,72.7766,479.635,72.5701,479.382,72.4359 C479.129,72.3017,478.854,72.2345,478.559,72.2345 C478.222,72.2345,477.919,72.3089,477.65,72.4576 C477.38,72.6062,477.168,72.8178,477.012,73.0923 C476.857,73.3668,476.779,73.6935,476.779,74.0724 C476.779,74.4513,476.857,74.7783,477.012,75.0532 C477.168,75.3281,477.38,75.54,477.65,75.6886 C477.919,75.8373,478.222,75.9116,478.559,75.9116 C478.854,75.9116,479.129,75.8461,479.382,75.7151 C479.635,75.5841,479.849,75.376,480.025,75.0909 C480.025,75.0909,481.078,75.7112,481.078,75.7112 C480.855,76.1536,480.524,76.4926,480.087,76.7281 C479.649,76.9637,479.143,77.0814,478.57,77.0814 z M484.915,77.0814 C484.313,77.0814,483.776,76.9524,483.304,76.6943 C482.833,76.4362,482.461,76.0798,482.189,75.6253 C481.917,75.1707,481.781,74.6525,481.781,74.0707 C481.781,73.4823,481.918,72.9629,482.191,72.5124 C482.464,72.0619,482.835,71.708,483.304,71.4507 C483.773,71.1934,484.31,71.0648,484.915,71.0648 C485.521,71.0648,486.06,71.1932,486.533,71.4501 C487.006,71.707,487.377,72.0603,487.646,72.5101 C487.915,72.9598,488.05,73.4801,488.05,74.0709 C488.05,74.655,487.915,75.1737,487.647,75.6271 C487.379,76.0804,487.007,76.4362,486.532,76.6943 C486.057,76.9524,485.518,77.0814,484.915,77.0814 z M484.915,75.9116 C485.252,75.9116,485.551,75.8373,485.813,75.6886 C486.074,75.54,486.281,75.3263,486.433,75.0477 C486.585,74.7691,486.661,74.4436,486.661,74.0712 C486.661,73.6931,486.585,73.3668,486.433,73.0923 C486.281,72.8178,486.074,72.6062,485.813,72.4576 C485.551,72.3089,485.254,72.2345,484.92,72.2345 C484.587,72.2345,484.29,72.3089,484.028,72.4576 C483.766,72.6062,483.558,72.8178,483.403,73.0923 C483.248,73.3668,483.17,73.6931,483.17,74.0712 C483.17,74.4436,483.248,74.7691,483.403,75.0477 C483.558,75.3263,483.766,75.54,484.027,75.6886 C484.288,75.8373,484.584,75.9116,484.915,75.9116 z M496.775,71.0648 C497.249,71.0648,497.668,71.1567,498.031,71.3404 C498.394,71.5242,498.678,71.8061,498.884,72.1862 C499.09,72.5662,499.193,73.0524,499.193,73.6448 C499.193,73.6448,499.193,77.0097,499.193,77.0097 C499.193,77.0097,497.818,77.0097,497.818,77.0097 C497.818,77.0097,497.818,73.8247,497.818,73.8247 C497.818,73.3039,497.703,72.9152,497.472,72.6586 C497.242,72.4019,496.917,72.2736,496.495,72.2736 C496.195,72.2736,495.929,72.339,495.697,72.4697 C495.465,72.6005,495.285,72.7943,495.158,73.0509 C495.031,73.3076,494.967,73.6322,494.967,74.0248 C494.967,74.0248,494.967,77.0097,494.967,77.0097 C494.967,77.0097,493.592,77.0097,493.592,77.0097 C493.592,77.0097,493.592,73.8247,493.592,73.8247 C493.592,73.3039,493.478,72.9152,493.249,72.6586 C493.02,72.4019,492.693,72.2736,492.27,72.2736 C491.97,72.2736,491.704,72.339,491.472,72.4697 C491.239,72.6005,491.06,72.7943,490.933,73.0509 C490.806,73.3076,490.742,73.6322,490.742,74.0248 C490.742,74.0248,490.742,77.0097,490.742,77.0097 C490.742,77.0097,489.367,77.0097,489.367,77.0097 C489.367,77.0097,489.367,71.1364,489.367,71.1364 C489.367,71.1364,490.678,71.1364,490.678,71.1364 C490.678,71.1364,490.678,72.7007,490.678,72.7007 C490.678,72.7007,490.443,72.2357,490.443,72.2357 C490.639,71.8577,490.926,71.5681,491.304,71.3667 C491.682,71.1654,492.115,71.0648,492.604,71.0648 C493.151,71.0648,493.628,71.2007,494.035,71.4724 C494.442,71.7442,494.712,72.158,494.845,72.7137 C494.845,72.7137,494.306,72.5257,494.306,72.5257 C494.494,72.0844,494.809,71.7306,495.249,71.4643 C495.69,71.1979,496.199,71.0648,496.775,71.0648 z"/>
      </defs>
      <use xlink:href="#17" style="fill:#000000;fill-opacity:0.50851;fill-rule:nonzero;opacity:1;stroke:none;"/>
    </g>
  </defs>
  <use xlink:href="#16"/>
</svg>
