<?xml version="1.0" encoding="utf-8"?>
<svg x="196.378pt" y="371.381pt" width="410.567pt" height="186.46pt" viewBox="196.378 371.381 410.567 186.46" xmlns="http://www.w3.org/2000/svg" xmlns:xlink="http://www.w3.org/1999/xlink">
  <clipPath id="2">
    <use xlink:href="#1"/>
    <path id="1" d="M351.429,371.381 C351.429,371.381,451.429,371.381,451.429,371.381 C451.429,371.381,451.429,471.381,451.429,471.381 C451.429,471.381,351.429,471.381,351.429,471.381 C351.429,471.381,351.429,371.381,351.429,371.381 z"/>
  </clipPath>
  <g id="3" style="clip-path:url(#2);">
    <title>Clipping Group</title>
    <defs>
      <title>Path 1</title>
      <g id="4">
        <defs>
          <path id="5" d="M442.398,407.752 C439.909,402.865,435.835,399.943,433.292,401.236 C430.995,402.4,430.765,406.611,432.569,411.013 C427.485,413.83,422.4,416.646,417.315,419.463 C415.776,417.404,413.784,415.709,411.472,414.533 C412.315,411.719,413.159,408.905,414.003,406.092 C415.348,405.818,416.693,405.545,418.038,405.271 C418.765,407.134,420.151,408.326,421.382,408.017 C422.561,407.72,423.206,406.134,423.042,404.248 C423.063,404.244,423.084,404.24,423.104,404.236 C423,403.73,422.896,403.223,422.792,402.717 C422.772,402.72,422.753,402.724,422.733,402.728 C422.069,400.607,420.569,399.189,419.241,399.521 C417.964,399.842,417.311,401.677,417.64,403.767 C416.594,403.981,415.548,404.194,414.503,404.408 C415.864,399.873,417.224,395.338,418.585,390.803 C422.722,391.655,426.417,390.588,427.143,388.155 C427.944,385.475,424.843,382.182,420.214,380.803 C415.589,379.42,411.19,380.471,410.39,383.151 C409.69,385.487,411.964,388.291,415.624,389.885 C413.274,397.718,410.923,405.552,408.573,413.385 C407.077,412.948,405.503,412.702,403.866,412.702 C402.034,412.702,400.276,413.002,398.628,413.545 C397.283,409.284,395.938,405.022,394.593,400.76 C396.702,399.713,397.979,397.967,397.55,396.413 C397.026,394.506,394.159,393.631,391.151,394.459 C388.143,395.288,386.132,397.506,386.655,399.413 C387.097,401.01,389.182,401.866,391.616,401.62 C393,406.008,394.384,410.396,395.768,414.784 C392.694,416.479,390.221,419.116,388.71,422.299 C386.289,421.061,383.869,419.823,381.448,418.584 C381.283,415.056,381.117,411.527,380.952,407.998 C383.401,407.702,385.245,406.412,385.245,404.866 C385.245,403.1,382.847,401.67,379.886,401.67 C376.929,401.67,374.53,403.1,374.53,404.866 C374.53,406.53,376.675,407.885,379.401,408.03 C379.554,411.276,379.706,414.522,379.858,417.768 C376.391,415.995,372.924,414.221,369.456,412.448 C371.241,407.561,370.687,402.916,368.042,401.76 C365.194,400.514,361.011,403.787,358.694,409.072 C356.378,414.357,356.808,419.654,359.655,420.904 C362.132,421.99,365.624,419.646,368.015,415.533 C374.529,418.866,381.043,422.2,387.558,425.533 C387.249,426.803,387.069,428.123,387.069,429.49 C387.069,431.799,387.538,433.998,388.378,435.998 C388.184,435.572,387.99,435.146,387.796,434.721 C382.748,437.028,377.699,439.335,372.651,441.642 C371.108,439.619,368.983,438.615,367.311,439.342 C365.155,440.279,364.577,443.724,366.018,447.033 C367.46,450.338,370.378,452.26,372.534,451.318 C374.526,450.451,375.147,447.443,374.096,444.381 C377.026,443.042,379.956,441.704,382.885,440.365 C382.885,442.297,382.885,444.23,382.885,446.162 C380.725,446.572,379.092,448.467,379.092,450.744 C379.092,453.326,381.182,455.416,383.764,455.416 C386.346,455.416,388.436,453.326,388.436,450.744 C388.436,448.463,386.803,446.572,384.643,446.162 C384.643,443.962,384.643,441.761,384.643,439.56 C386.122,438.885,387.602,438.209,389.081,437.533 C388.867,437.066,388.654,436.598,388.44,436.131 C390.483,440.865,394.643,444.455,399.729,445.748 C399.729,449.199,399.729,452.649,399.729,456.1 C397.612,456.436,396.065,457.42,396.065,458.6 C396.065,460.049,398.401,461.229,401.276,461.229 C404.155,461.229,406.487,460.049,406.487,458.6 C406.487,457.42,404.94,456.436,402.823,456.1 C402.823,452.81,402.823,449.519,402.823,446.229 C403.19,446.249,403.53,446.28,403.877,446.28 C406.483,446.28,408.94,445.67,411.143,444.608 C411.441,445.254,411.739,445.9,412.038,446.545 C410.776,447.401,409.948,448.846,409.948,450.487 C409.948,453.12,412.084,455.252,414.713,455.252 C417.346,455.252,419.479,453.12,419.479,450.487 C419.479,447.854,417.346,445.721,414.713,445.721 C414.276,445.721,413.858,445.799,413.452,445.913 C413.138,445.233,412.824,444.553,412.51,443.873 C415.034,442.354,417.131,440.202,418.565,437.62 C421.905,440.03,425.245,442.44,428.585,444.85 C427.479,447.311,427.468,449.627,428.729,450.448 C430.272,451.452,433.101,449.827,435.054,446.827 C437.003,443.827,437.339,440.581,435.796,439.577 C434.53,438.756,432.405,439.717,430.604,441.737 C428.528,440.238,426.451,438.739,424.374,437.241 C425.499,436.346,426.624,435.452,427.749,434.557 C428.495,435.147,429.429,435.518,430.456,435.518 C432.878,435.518,434.835,433.557,434.835,431.139 C434.835,428.721,432.874,426.76,430.456,426.76 C428.038,426.76,426.077,428.721,426.077,431.139 C426.077,431.967,426.319,432.737,426.722,433.397 C425.504,434.366,424.287,435.334,423.069,436.303 C422.05,435.568,421.03,434.832,420.011,434.096 C420.429,432.631,420.663,431.092,420.663,429.495 C420.663,426.842,420.03,424.342,418.933,422.112 C423.942,419.336,428.951,416.56,433.96,413.784 C436.46,417.842,440.006,420.12,442.299,418.952 C444.842,417.659,444.881,412.643,442.397,407.753 z"/>
        </defs>
        <use xlink:href="#5" style="fill:#000000;fill-opacity:1;fill-rule:evenodd;opacity:1;stroke:none;"/>
      </g>
    </defs>
    <use xlink:href="#4"/>
  </g>
  <clipPath id="7">
    <use xlink:href="#6"/>
    <path id="6" d="M351.429,371.381 C351.429,371.381,451.429,371.381,451.429,371.381 C451.429,371.381,451.429,471.381,451.429,471.381 C451.429,471.381,351.429,471.381,351.429,471.381 C351.429,471.381,351.429,371.381,351.429,371.381 z"/>
  </clipPath>
  <g id="8" style="clip-path:url(#7);">
    <defs>
      <g id="9">
        <defs>
          <path id="10" d="M442.398,407.752 C439.909,402.865,435.835,399.943,433.292,401.236 C430.995,402.4,430.765,406.611,432.569,411.013 C427.485,413.83,422.4,416.646,417.315,419.463 C415.776,417.404,413.784,415.709,411.472,414.533 C412.315,411.719,413.159,408.905,414.003,406.092 C415.348,405.818,416.693,405.545,418.038,405.271 C418.765,407.134,420.151,408.326,421.382,408.017 C422.561,407.72,423.206,406.134,423.042,404.248 C423.063,404.244,423.084,404.24,423.104,404.236 C423,403.73,422.896,403.223,422.792,402.717 C422.772,402.72,422.753,402.724,422.733,402.728 C422.069,400.607,420.569,399.189,419.241,399.521 C417.964,399.842,417.311,401.677,417.64,403.767 C416.594,403.981,415.548,404.194,414.503,404.408 C415.864,399.873,417.224,395.338,418.585,390.803 C422.722,391.655,426.417,390.588,427.143,388.155 C427.944,385.475,424.843,382.182,420.214,380.803 C415.589,379.42,411.19,380.471,410.39,383.151 C409.69,385.487,411.964,388.291,415.624,389.885 C413.274,397.718,410.923,405.552,408.573,413.385 C407.077,412.948,405.503,412.702,403.866,412.702 C402.034,412.702,400.276,413.002,398.628,413.545 C397.283,409.284,395.938,405.022,394.593,400.76 C396.702,399.713,397.979,397.967,397.55,396.413 C397.026,394.506,394.159,393.631,391.151,394.459 C388.143,395.288,386.132,397.506,386.655,399.413 C387.097,401.01,389.182,401.866,391.616,401.62 C393,406.008,394.384,410.396,395.768,414.784 C392.694,416.479,390.221,419.116,388.71,422.299 C386.289,421.061,383.869,419.823,381.448,418.584 C381.283,415.056,381.117,411.527,380.952,407.998 C383.401,407.702,385.245,406.412,385.245,404.866 C385.245,403.1,382.847,401.67,379.886,401.67 C376.929,401.67,374.53,403.1,374.53,404.866 C374.53,406.53,376.675,407.885,379.401,408.03 C379.554,411.276,379.706,414.522,379.858,417.768 C376.391,415.995,372.924,414.221,369.456,412.448 C371.241,407.561,370.687,402.916,368.042,401.76 C365.194,400.514,361.011,403.787,358.694,409.072 C356.378,414.357,356.808,419.654,359.655,420.904 C362.132,421.99,365.624,419.646,368.015,415.533 C374.529,418.866,381.043,422.2,387.558,425.533 C387.249,426.803,387.069,428.123,387.069,429.49 C387.069,431.799,387.538,433.998,388.378,435.998 C388.184,435.572,387.99,435.146,387.796,434.721 C382.748,437.028,377.699,439.335,372.651,441.642 C371.108,439.619,368.983,438.615,367.311,439.342 C365.155,440.279,364.577,443.724,366.018,447.033 C367.46,450.338,370.378,452.26,372.534,451.318 C374.526,450.451,375.147,447.443,374.096,444.381 C377.026,443.042,379.956,441.704,382.885,440.365 C382.885,442.297,382.885,444.23,382.885,446.162 C380.725,446.572,379.092,448.467,379.092,450.744 C379.092,453.326,381.182,455.416,383.764,455.416 C386.346,455.416,388.436,453.326,388.436,450.744 C388.436,448.463,386.803,446.572,384.643,446.162 C384.643,443.962,384.643,441.761,384.643,439.56 C386.122,438.885,387.602,438.209,389.081,437.533 C388.867,437.066,388.654,436.598,388.44,436.131 C390.483,440.865,394.643,444.455,399.729,445.748 C399.729,449.199,399.729,452.649,399.729,456.1 C397.612,456.436,396.065,457.42,396.065,458.6 C396.065,460.049,398.401,461.229,401.276,461.229 C404.155,461.229,406.487,460.049,406.487,458.6 C406.487,457.42,404.94,456.436,402.823,456.1 C402.823,452.81,402.823,449.519,402.823,446.229 C403.19,446.249,403.53,446.28,403.877,446.28 C406.483,446.28,408.94,445.67,411.143,444.608 C411.441,445.254,411.739,445.9,412.038,446.545 C410.776,447.401,409.948,448.846,409.948,450.487 C409.948,453.12,412.084,455.252,414.713,455.252 C417.346,455.252,419.479,453.12,419.479,450.487 C419.479,447.854,417.346,445.721,414.713,445.721 C414.276,445.721,413.858,445.799,413.452,445.913 C413.138,445.233,412.824,444.553,412.51,443.873 C415.034,442.354,417.131,440.202,418.565,437.62 C421.905,440.03,425.245,442.44,428.585,444.85 C427.479,447.311,427.468,449.627,428.729,450.448 C430.272,451.452,433.101,449.827,435.054,446.827 C437.003,443.827,437.339,440.581,435.796,439.577 C434.53,438.756,432.405,439.717,430.604,441.737 C428.528,440.238,426.451,438.739,424.374,437.241 C425.499,436.346,426.624,435.452,427.749,434.557 C428.495,435.147,429.429,435.518,430.456,435.518 C432.878,435.518,434.835,433.557,434.835,431.139 C434.835,428.721,432.874,426.76,430.456,426.76 C428.038,426.76,426.077,428.721,426.077,431.139 C426.077,431.967,426.319,432.737,426.722,433.397 C425.504,434.366,424.287,435.334,423.069,436.303 C422.05,435.568,421.03,434.832,420.011,434.096 C420.429,432.631,420.663,431.092,420.663,429.495 C420.663,426.842,420.03,424.342,418.933,422.112 C423.942,419.336,428.951,416.56,433.96,413.784 C436.46,417.842,440.006,420.12,442.299,418.952 C444.842,417.659,444.881,412.643,442.397,407.753 z"/>
        </defs>
        <use xlink:href="#10" style="fill:#aaaaaa;fill-opacity:1;fill-rule:nonzero;opacity:1;stroke:none;"/>
      </g>
    </defs>
    <use xlink:href="#9"/>
  </g>
  <defs>
    <title>Text</title>
    <g id="11">
      <defs>
        <path id="12" d="M212.248,508.14 C209.969,508.14,207.86,507.762,205.923,507.007 C203.985,506.25,202.305,505.192,200.881,503.83 C199.458,502.468,198.352,500.871,197.562,499.037 C196.773,497.204,196.378,495.199,196.378,493.022 C196.378,490.845,196.773,488.841,197.562,487.01 C198.352,485.179,199.46,483.581,200.886,482.215 C202.312,480.849,203.99,479.79,205.919,479.037 C207.848,478.285,209.954,477.908,212.237,477.908 C214.523,477.908,216.626,478.282,218.547,479.031 C220.468,479.779,222.138,480.832,223.559,482.19 C224.98,483.548,226.086,485.146,226.875,486.986 C227.665,488.825,228.059,490.839,228.059,493.026 C228.059,495.213,227.665,497.226,226.875,499.065 C226.086,500.904,224.98,502.503,223.559,503.86 C222.138,505.217,220.468,506.27,218.547,507.018 C216.626,507.766,214.527,508.14,212.248,508.14 z M212.237,503.373 C213.721,503.373,215.089,503.118,216.34,502.608 C217.591,502.098,218.682,501.377,219.611,500.446 C220.54,499.514,221.264,498.419,221.783,497.161 C222.302,495.902,222.561,494.52,222.561,493.013 C222.561,491.507,222.303,490.129,221.787,488.88 C221.271,487.631,220.547,486.54,219.617,485.607 C218.687,484.675,217.595,483.954,216.343,483.443 C215.091,482.932,213.722,482.676,212.237,482.676 C210.752,482.676,209.381,482.932,208.123,483.444 C206.865,483.955,205.768,484.678,204.834,485.612 C203.899,486.546,203.172,487.639,202.654,488.89 C202.136,490.141,201.876,491.515,201.876,493.013 C201.876,494.51,202.135,495.888,202.652,497.146 C203.17,498.405,203.895,499.504,204.827,500.444 C205.76,501.383,206.857,502.106,208.118,502.613 C209.379,503.12,210.752,503.373,212.237,503.373 z M234.865,507.724 C234.865,507.724,234.865,478.324,234.865,478.324 C234.865,478.324,246.935,478.324,246.935,478.324 C249.533,478.324,251.766,478.742,253.634,479.577 C255.502,480.412,256.939,481.614,257.945,483.182 C258.952,484.751,259.455,486.621,259.455,488.791 C259.455,490.937,258.952,492.786,257.945,494.339 C256.939,495.892,255.502,497.084,253.634,497.915 C251.766,498.747,249.533,499.162,246.935,499.162 C246.935,499.162,237.881,499.162,237.881,499.162 C237.881,499.162,240.316,496.697,240.316,496.697 C240.316,496.697,240.316,507.724,240.316,507.724 C240.316,507.724,234.865,507.724,234.865,507.724 z M254.072,507.724 C254.072,507.724,246.629,497.051,246.629,497.051 C246.629,497.051,252.485,497.051,252.485,497.051 C252.485,497.051,259.975,507.724,259.975,507.724 C259.975,507.724,254.072,507.724,254.072,507.724 z M240.316,497.278 C240.316,497.278,237.881,494.648,237.881,494.648 C237.881,494.648,246.707,494.648,246.707,494.648 C249.103,494.648,250.91,494.133,252.129,493.103 C253.348,492.072,253.957,490.635,253.957,488.791 C253.957,486.922,253.348,485.479,252.129,484.461 C250.91,483.442,249.103,482.933,246.707,482.933 C246.707,482.933,237.881,482.933,237.881,482.933 C237.881,482.933,240.316,480.268,240.316,480.268 C240.316,480.268,240.316,497.278,240.316,497.278 z M280.28,508.14 C277.998,508.14,275.892,507.77,273.963,507.027 C272.034,506.285,270.359,505.235,268.938,503.875 C267.517,502.515,266.412,500.915,265.625,499.076 C264.837,497.237,264.443,495.219,264.443,493.024 C264.443,490.829,264.837,488.812,265.625,486.973 C266.412,485.133,267.524,483.534,268.959,482.174 C270.394,480.814,272.078,479.763,274.011,479.021 C275.943,478.279,278.066,477.908,280.381,477.908 C282.854,477.908,285.091,478.313,287.093,479.122 C289.095,479.932,290.789,481.125,292.175,482.701 C292.175,482.701,288.722,486.056,288.722,486.056 C287.579,484.895,286.34,484.041,285.006,483.495 C283.672,482.949,282.212,482.676,280.628,482.676 C279.073,482.676,277.642,482.929,276.333,483.436 C275.024,483.943,273.891,484.658,272.934,485.582 C271.976,486.506,271.238,487.599,270.72,488.861 C270.201,490.123,269.941,491.511,269.941,493.024 C269.941,494.507,270.201,495.88,270.72,497.143 C271.238,498.407,271.976,499.507,272.934,500.443 C273.891,501.379,275.016,502.102,276.309,502.61 C277.602,503.119,279.024,503.373,280.576,503.373 C282.037,503.373,283.446,503.141,284.802,502.678 C286.159,502.215,287.451,501.436,288.68,500.341 C288.68,500.341,291.774,504.402,291.774,504.402 C290.25,505.631,288.474,506.561,286.447,507.193 C284.419,507.825,282.363,508.14,280.28,508.14 z M286.638,503.691 C286.638,503.691,286.638,492.702,286.638,492.702 C286.638,492.702,291.774,492.702,291.774,492.702 C291.774,492.702,291.774,504.402,291.774,504.402 C291.774,504.402,286.638,503.691,286.638,503.691 z M295.799,507.724 C295.799,507.724,309.016,478.324,309.016,478.324 C309.016,478.324,314.409,478.324,314.409,478.324 C314.409,478.324,327.663,507.724,327.663,507.724 C327.663,507.724,321.949,507.724,321.949,507.724 C321.949,507.724,310.592,481.237,310.592,481.237 C310.592,481.237,312.774,481.237,312.774,481.237 C312.774,481.237,301.417,507.724,301.417,507.724 C301.417,507.724,295.799,507.724,295.799,507.724 z M301.906,500.918 C301.906,500.918,303.366,496.631,303.366,496.631 C303.366,496.631,319.231,496.631,319.231,496.631 C319.231,496.631,320.726,500.918,320.726,500.918 C320.726,500.918,301.906,500.918,301.906,500.918 z M332.416,507.724 C332.416,507.724,332.416,478.324,332.416,478.324 C332.416,478.324,336.908,478.324,336.908,478.324 C336.908,478.324,355.334,500.97,355.334,500.97 C355.334,500.97,353.089,500.97,353.089,500.97 C353.089,500.97,353.089,478.324,353.089,478.324 C353.089,478.324,358.507,478.324,358.507,478.324 C358.507,478.324,358.507,507.724,358.507,507.724 C358.507,507.724,354.016,507.724,354.016,507.724 C354.016,507.724,335.591,485.079,335.591,485.079 C335.591,485.079,337.834,485.079,337.834,485.079 C337.834,485.079,337.834,507.724,337.834,507.724 C337.834,507.724,332.416,507.724,332.416,507.724 z M367.44,507.724 C367.44,507.724,367.44,478.324,367.44,478.324 C367.44,478.324,372.891,478.324,372.891,478.324 C372.891,478.324,372.891,507.724,372.891,507.724 C372.891,507.724,367.44,507.724,367.44,507.724 z M379.567,507.724 C379.567,507.724,379.567,504.085,379.567,504.085 C379.567,504.085,398.58,480.884,398.58,480.884 C398.58,480.884,399.213,482.939,399.213,482.939 C399.213,482.939,379.877,482.939,379.877,482.939 C379.877,482.939,379.877,478.324,379.877,478.324 C379.877,478.324,404.109,478.324,404.109,478.324 C404.109,478.324,404.109,481.964,404.109,481.964 C404.109,481.964,385.133,505.164,385.133,505.164 C385.133,505.164,384.463,503.11,384.463,503.11 C384.463,503.11,404.672,503.11,404.672,503.11 C404.672,503.11,404.672,507.724,404.672,507.724 C404.672,507.724,379.567,507.724,379.567,507.724 z M406.511,507.724 C406.511,507.724,419.729,478.324,419.729,478.324 C419.729,478.324,425.121,478.324,425.121,478.324 C425.121,478.324,438.376,507.724,438.376,507.724 C438.376,507.724,432.662,507.724,432.662,507.724 C432.662,507.724,421.305,481.237,421.305,481.237 C421.305,481.237,423.487,481.237,423.487,481.237 C423.487,481.237,412.13,507.724,412.13,507.724 C412.13,507.724,406.511,507.724,406.511,507.724 z M412.619,500.918 C412.619,500.918,414.079,496.631,414.079,496.631 C414.079,496.631,429.943,496.631,429.943,496.631 C429.943,496.631,431.439,500.918,431.439,500.918 C431.439,500.918,412.619,500.918,412.619,500.918 z M447.604,507.724 C447.604,507.724,447.604,482.939,447.604,482.939 C447.604,482.939,437.86,482.939,437.86,482.939 C437.86,482.939,437.86,478.324,437.86,478.324 C437.86,478.324,462.799,478.324,462.799,478.324 C462.799,478.324,462.799,482.939,462.799,482.939 C462.799,482.939,453.055,482.939,453.055,482.939 C453.055,482.939,453.055,507.724,453.055,507.724 C453.055,507.724,447.604,507.724,447.604,507.724 z M467.933,507.724 C467.933,507.724,467.933,478.324,467.933,478.324 C467.933,478.324,473.383,478.324,473.383,478.324 C473.383,478.324,473.383,507.724,473.383,507.724 C473.383,507.724,467.933,507.724,467.933,507.724 z M496.059,508.14 C493.78,508.14,491.671,507.762,489.734,507.007 C487.796,506.25,486.116,505.192,484.692,503.83 C483.269,502.468,482.163,500.871,481.373,499.037 C480.584,497.204,480.189,495.199,480.189,493.022 C480.189,490.845,480.584,488.841,481.373,487.01 C482.163,485.179,483.271,483.581,484.697,482.215 C486.123,480.849,487.801,479.79,489.73,479.037 C491.659,478.285,493.765,477.908,496.048,477.908 C498.334,477.908,500.437,478.282,502.358,479.031 C504.279,479.779,505.949,480.832,507.37,482.19 C508.791,483.548,509.897,485.146,510.686,486.986 C511.476,488.825,511.87,490.839,511.87,493.026 C511.87,495.213,511.476,497.226,510.686,499.065 C509.897,500.904,508.791,502.503,507.37,503.86 C505.949,505.217,504.279,506.27,502.358,507.018 C500.437,507.766,498.338,508.14,496.059,508.14 z M496.048,503.373 C497.532,503.373,498.9,503.118,500.151,502.608 C501.402,502.098,502.493,501.377,503.422,500.446 C504.351,499.514,505.075,498.419,505.594,497.161 C506.113,495.902,506.372,494.52,506.372,493.013 C506.372,491.507,506.114,490.129,505.598,488.88 C505.082,487.631,504.358,486.54,503.428,485.607 C502.498,484.675,501.406,483.954,500.154,483.443 C498.902,482.932,497.533,482.676,496.048,482.676 C494.563,482.676,493.192,482.932,491.934,483.444 C490.676,483.955,489.579,484.678,488.645,485.612 C487.71,486.546,486.983,487.639,486.465,488.89 C485.947,490.141,485.687,491.515,485.687,493.013 C485.687,494.51,485.946,495.888,486.463,497.146 C486.981,498.405,487.706,499.504,488.638,500.444 C489.571,501.383,490.668,502.106,491.929,502.613 C493.19,503.12,494.563,503.373,496.048,503.373 z M518.676,507.724 C518.676,507.724,518.676,478.324,518.676,478.324 C518.676,478.324,523.168,478.324,523.168,478.324 C523.168,478.324,541.594,500.97,541.594,500.97 C541.594,500.97,539.349,500.97,539.349,500.97 C539.349,500.97,539.349,478.324,539.349,478.324 C539.349,478.324,544.767,478.324,544.767,478.324 C544.767,478.324,544.767,507.724,544.767,507.724 C544.767,507.724,540.276,507.724,540.276,507.724 C540.276,507.724,521.85,485.079,521.85,485.079 C521.85,485.079,524.094,485.079,524.094,485.079 C524.094,485.079,524.094,507.724,524.094,507.724 C524.094,507.724,518.676,507.724,518.676,507.724 z M549.521,507.724 C549.521,507.724,562.739,478.324,562.739,478.324 C562.739,478.324,568.131,478.324,568.131,478.324 C568.131,478.324,581.385,507.724,581.385,507.724 C581.385,507.724,575.671,507.724,575.671,507.724 C575.671,507.724,564.314,481.237,564.314,481.237 C564.314,481.237,566.496,481.237,566.496,481.237 C566.496,481.237,555.139,507.724,555.139,507.724 C555.139,507.724,549.521,507.724,549.521,507.724 z M555.629,500.918 C555.629,500.918,557.088,496.631,557.088,496.631 C557.088,496.631,572.953,496.631,572.953,496.631 C572.953,496.631,574.449,500.918,574.449,500.918 C574.449,500.918,555.629,500.918,555.629,500.918 z M586.139,507.724 C586.139,507.724,586.139,478.324,586.139,478.324 C586.139,478.324,591.589,478.324,591.589,478.324 C591.589,478.324,591.589,503.11,591.589,503.11 C591.589,503.11,606.946,503.11,606.946,503.11 C606.946,503.11,606.946,507.724,606.946,507.724 C606.946,507.724,586.139,507.724,586.139,507.724 z"/>
      </defs>
      <use xlink:href="#12" style="fill:#000000;fill-opacity:1;fill-rule:nonzero;opacity:1;stroke:none;"/>
    </g>
  </defs>
  <use xlink:href="#11"/>
  <defs>
    <title>Text</title>
    <g id="13">
      <defs>
        <path id="14" d="M270.567,557.424 C270.567,557.424,270.567,528.024,270.567,528.024 C270.567,528.024,275.058,528.024,275.058,528.024 C275.058,528.024,287.915,549.486,287.915,549.486 C287.915,549.486,285.533,549.486,285.533,549.486 C285.533,549.486,298.2,528.024,298.2,528.024 C298.2,528.024,302.691,528.024,302.691,528.024 C302.691,528.024,302.739,557.424,302.739,557.424 C302.739,557.424,297.549,557.424,297.549,557.424 C297.549,557.424,297.501,536.147,297.501,536.147 C297.501,536.147,298.6,536.147,298.6,536.147 C298.6,536.147,287.862,554.083,287.862,554.083 C287.862,554.083,285.396,554.083,285.396,554.083 C285.396,554.083,274.505,536.147,274.505,536.147 C274.505,536.147,275.757,536.147,275.757,536.147 C275.757,536.147,275.757,557.424,275.757,557.424 C275.757,557.424,270.567,557.424,270.567,557.424 z M320.066,557.424 C320.066,557.424,320.066,545.81,320.066,545.81 C320.066,545.81,321.31,549.136,321.31,549.136 C321.31,549.136,308.539,528.024,308.539,528.024 C308.539,528.024,314.353,528.024,314.353,528.024 C314.353,528.024,324.626,545.036,324.626,545.036 C324.626,545.036,321.352,545.036,321.352,545.036 C321.352,545.036,331.673,528.024,331.673,528.024 C331.673,528.024,337.043,528.024,337.043,528.024 C337.043,528.024,324.283,549.136,324.283,549.136 C324.283,549.136,325.517,545.81,325.517,545.81 C325.517,545.81,325.517,557.424,325.517,557.424 C325.517,557.424,320.066,557.424,320.066,557.424 z M355.178,557.841 C352.924,557.841,350.838,557.469,348.922,556.727 C347.005,555.985,345.342,554.935,343.933,553.575 C342.524,552.215,341.426,550.616,340.638,548.776 C339.851,546.937,339.457,544.919,339.457,542.724 C339.457,540.529,339.851,538.512,340.638,536.673 C341.426,534.833,342.53,533.234,343.952,531.874 C345.373,530.514,347.042,529.463,348.958,528.721 C350.875,527.979,352.961,527.608,355.215,527.608 C357.612,527.608,359.807,528.021,361.802,528.846 C363.796,529.671,365.472,530.89,366.831,532.501 C366.831,532.501,363.315,535.856,363.315,535.856 C362.252,534.691,361.062,533.82,359.743,533.242 C358.425,532.665,356.998,532.376,355.463,532.376 C353.939,532.376,352.538,532.629,351.259,533.136 C349.98,533.643,348.869,534.358,347.926,535.282 C346.983,536.206,346.252,537.3,345.733,538.564 C345.214,539.827,344.955,541.214,344.955,542.724 C344.955,544.235,345.214,545.622,345.733,546.885 C346.252,548.149,346.983,549.242,347.926,550.167 C348.869,551.091,349.98,551.806,351.259,552.313 C352.538,552.82,353.939,553.073,355.463,553.073 C356.998,553.073,358.425,552.784,359.743,552.207 C361.062,551.629,362.252,550.746,363.315,549.556 C363.315,549.556,366.831,552.911,366.831,552.911 C365.472,554.519,363.796,555.743,361.802,556.582 C359.807,557.421,357.6,557.841,355.178,557.841 z M387.449,557.841 C385.17,557.841,383.062,557.463,381.124,556.706 C379.187,555.951,377.506,554.892,376.083,553.53 C374.66,552.168,373.554,550.571,372.764,548.737 C371.975,546.904,371.58,544.899,371.58,542.722 C371.58,540.545,371.975,538.541,372.764,536.71 C373.554,534.879,374.661,533.281,376.088,531.915 C377.514,530.549,379.192,529.49,381.121,528.737 C383.05,527.985,385.156,527.608,387.439,527.608 C389.725,527.608,391.828,527.982,393.749,528.731 C395.669,529.479,397.34,530.532,398.761,531.89 C400.182,533.248,401.287,534.846,402.077,536.686 C402.866,538.525,403.261,540.539,403.261,542.726 C403.261,544.913,402.866,546.926,402.077,548.765 C401.287,550.604,400.182,552.203,398.761,553.56 C397.34,554.917,395.669,555.97,393.749,556.718 C391.828,557.466,389.728,557.841,387.449,557.841 z M387.438,553.073 C388.923,553.073,390.291,552.818,391.542,552.308 C392.793,551.798,393.883,551.077,394.812,550.146 C395.742,549.214,396.466,548.119,396.985,546.861 C397.503,545.602,397.763,544.22,397.763,542.713 C397.763,541.207,397.505,539.829,396.989,538.58 C396.472,537.331,395.749,536.24,394.819,535.307 C393.888,534.375,392.797,533.654,391.545,533.143 C390.292,532.632,388.924,532.376,387.439,532.376 C385.954,532.376,384.582,532.632,383.324,533.143 C382.066,533.655,380.97,534.378,380.035,535.312 C379.101,536.246,378.374,537.339,377.856,538.59 C377.337,539.841,377.078,541.215,377.078,542.713 C377.078,544.21,377.337,545.588,377.854,546.846 C378.371,548.105,379.096,549.204,380.029,550.144 C380.962,551.083,382.059,551.806,383.32,552.313 C384.58,552.82,385.953,553.073,387.438,553.073 z M411.267,557.424 C411.267,557.424,411.267,528.024,411.267,528.024 C411.267,528.024,416.718,528.024,416.718,528.024 C416.718,528.024,416.718,552.81,416.718,552.81 C416.718,552.81,432.074,552.81,432.074,552.81 C432.074,552.81,432.074,557.424,432.074,557.424 C432.074,557.424,411.267,557.424,411.267,557.424 z M451.826,557.841 C449.547,557.841,447.438,557.463,445.501,556.706 C443.563,555.951,441.883,554.892,440.459,553.53 C439.036,552.168,437.93,550.571,437.14,548.737 C436.351,546.904,435.956,544.899,435.956,542.722 C435.956,540.545,436.351,538.541,437.14,536.71 C437.93,534.879,439.038,533.281,440.464,531.915 C441.89,530.549,443.568,529.49,445.497,528.737 C447.426,527.985,449.532,527.608,451.815,527.608 C454.101,527.608,456.204,527.982,458.125,528.731 C460.046,529.479,461.716,530.532,463.137,531.89 C464.558,533.248,465.664,534.846,466.453,536.686 C467.243,538.525,467.637,540.539,467.637,542.726 C467.637,544.913,467.243,546.926,466.453,548.765 C465.664,550.604,464.558,552.203,463.137,553.56 C461.716,554.917,460.046,555.97,458.125,556.718 C456.204,557.466,454.105,557.841,451.826,557.841 z M451.814,553.073 C453.299,553.073,454.667,552.818,455.918,552.308 C457.169,551.798,458.26,551.077,459.189,550.146 C460.118,549.214,460.842,548.119,461.361,546.861 C461.88,545.602,462.139,544.22,462.139,542.713 C462.139,541.207,461.881,539.829,461.365,538.58 C460.849,537.331,460.125,536.24,459.195,535.307 C458.265,534.375,457.173,533.654,455.921,533.143 C454.669,532.632,453.3,532.376,451.815,532.376 C450.33,532.376,448.959,532.632,447.701,533.143 C446.443,533.655,445.346,534.378,444.412,535.312 C443.477,536.246,442.75,537.339,442.232,538.59 C441.714,539.841,441.454,541.215,441.454,542.713 C441.454,544.21,441.713,545.588,442.23,546.846 C442.748,548.105,443.473,549.204,444.405,550.144 C445.338,551.083,446.435,551.806,447.696,552.313 C448.957,552.82,450.33,553.073,451.814,553.073 z M489.354,557.841 C487.071,557.841,484.965,557.469,483.036,556.727 C481.108,555.985,479.432,554.935,478.011,553.575 C476.59,552.215,475.486,550.616,474.698,548.776 C473.91,546.937,473.516,544.919,473.516,542.724 C473.516,540.529,473.91,538.512,474.698,536.673 C475.486,534.833,476.597,533.234,478.032,531.874 C479.467,530.514,481.151,529.463,483.084,528.721 C485.016,527.979,487.14,527.608,489.454,527.608 C491.927,527.608,494.164,528.013,496.166,528.822 C498.168,529.632,499.862,530.825,501.248,532.401 C501.248,532.401,497.795,535.756,497.795,535.756 C496.652,534.595,495.413,533.741,494.079,533.195 C492.745,532.649,491.285,532.376,489.701,532.376 C488.146,532.376,486.715,532.629,485.406,533.136 C484.097,533.643,482.964,534.358,482.007,535.282 C481.05,536.206,480.311,537.299,479.793,538.561 C479.274,539.823,479.014,541.211,479.014,542.724 C479.014,544.207,479.274,545.58,479.793,546.843 C480.311,548.107,481.05,549.207,482.007,550.143 C482.964,551.079,484.089,551.802,485.382,552.31 C486.675,552.819,488.097,553.073,489.649,553.073 C491.11,553.073,492.519,552.841,493.875,552.378 C495.232,551.915,496.524,551.136,497.753,550.041 C497.753,550.041,500.847,554.102,500.847,554.102 C499.323,555.331,497.547,556.261,495.52,556.893 C493.492,557.525,491.436,557.841,489.354,557.841 z M495.711,553.391 C495.711,553.391,495.711,542.402,495.711,542.402 C495.711,542.402,500.847,542.402,500.847,542.402 C500.847,542.402,500.847,554.102,500.847,554.102 C500.847,554.102,495.711,553.391,495.711,553.391 z M517.445,557.424 C517.445,557.424,517.445,545.81,517.445,545.81 C517.445,545.81,518.69,549.136,518.69,549.136 C518.69,549.136,505.918,528.024,505.918,528.024 C505.918,528.024,511.732,528.024,511.732,528.024 C511.732,528.024,522.006,545.036,522.006,545.036 C522.006,545.036,518.732,545.036,518.732,545.036 C518.732,545.036,529.052,528.024,529.052,528.024 C529.052,528.024,534.422,528.024,534.422,528.024 C534.422,528.024,521.662,549.136,521.662,549.136 C521.662,549.136,522.896,545.81,522.896,545.81 C522.896,545.81,522.896,557.424,522.896,557.424 C522.896,557.424,517.445,557.424,517.445,557.424 z"/>
      </defs>
      <use xlink:href="#14" style="fill:#000000;fill-opacity:0.50851;fill-rule:nonzero;opacity:1;stroke:none;"/>
    </g>
  </defs>
  <use xlink:href="#13"/>
  <defs>
    <title>Path</title>
    <g id="15">
      <defs>
        <path id="16" d="M251.688,516.39 C251.688,516.39,551.169,515.72,551.169,515.72"/>
      </defs>
      <use xlink:href="#16" style="fill:none;opacity:1;stroke:#000000;stroke-linecap:butt;stroke-linejoin:round;stroke-miterlimit:10;stroke-opacity:1;stroke-width:0.5;"/>
    </g>
  </defs>
  <use xlink:href="#15"/>
</svg>
